%TF.GenerationSoftware,KiCad,Pcbnew,10.0.2*%
%TF.CreationDate,2026-07-08T17:49:44-03:00*%
%TF.ProjectId,driver_bts7960_v1,64726976-6572-45f6-9274-73373936305f,rev?*%
%TF.SameCoordinates,Original*%
%TF.FileFunction,Copper,L2,Bot*%
%TF.FilePolarity,Positive*%
%FSLAX46Y46*%
G04 Gerber Fmt 4.6, Leading zero omitted, Abs format (unit mm)*
G04 Created by KiCad (PCBNEW 10.0.2) date 2026-07-08 17:49:44*
%MOMM*%
%LPD*%
G01*
G04 APERTURE LIST*
G04 Aperture macros list*
%AMRoundRect*
0 Rectangle with rounded corners*
0 $1 Rounding radius*
0 $2 $3 $4 $5 $6 $7 $8 $9 X,Y pos of 4 corners*
0 Add a 4 corners polygon primitive as box body*
4,1,4,$2,$3,$4,$5,$6,$7,$8,$9,$2,$3,0*
0 Add four circle primitives for the rounded corners*
1,1,$1+$1,$2,$3*
1,1,$1+$1,$4,$5*
1,1,$1+$1,$6,$7*
1,1,$1+$1,$8,$9*
0 Add four rect primitives between the rounded corners*
20,1,$1+$1,$2,$3,$4,$5,0*
20,1,$1+$1,$4,$5,$6,$7,0*
20,1,$1+$1,$6,$7,$8,$9,0*
20,1,$1+$1,$8,$9,$2,$3,0*%
G04 Aperture macros list end*
%TA.AperFunction,ComponentPad*%
%ADD10R,1.700000X1.700000*%
%TD*%
%TA.AperFunction,ComponentPad*%
%ADD11C,1.700000*%
%TD*%
%TA.AperFunction,ComponentPad*%
%ADD12RoundRect,0.760000X-1.140000X-1.140000X1.140000X-1.140000X1.140000X1.140000X-1.140000X1.140000X0*%
%TD*%
%TA.AperFunction,ComponentPad*%
%ADD13C,4.000000*%
%TD*%
%TA.AperFunction,ComponentPad*%
%ADD14RoundRect,0.250000X0.550000X0.550000X-0.550000X0.550000X-0.550000X-0.550000X0.550000X-0.550000X0*%
%TD*%
%TA.AperFunction,ComponentPad*%
%ADD15C,1.600000*%
%TD*%
%TA.AperFunction,ViaPad*%
%ADD16C,1.800000*%
%TD*%
%TA.AperFunction,Conductor*%
%ADD17C,0.800000*%
%TD*%
%TA.AperFunction,Conductor*%
%ADD18C,3.000000*%
%TD*%
%TA.AperFunction,Profile*%
%ADD19C,0.050000*%
%TD*%
G04 APERTURE END LIST*
D10*
%TO.P,J3,1,Pin_1_1*%
%TO.N,PWM_D*%
X137075000Y-77850000D03*
D11*
%TO.P,J3,2,Pin_2_2*%
%TO.N,PWM_C*%
X134535000Y-77850000D03*
%TO.P,J3,3,Pin_3_3*%
%TO.N,PWM_B*%
X131995000Y-77850000D03*
%TO.P,J3,4,Pin_4_4*%
%TO.N,PWM_A*%
X129455000Y-77850000D03*
%TO.P,J3,5,Pin_5_5*%
%TO.N,ENABLE_2*%
X126915000Y-77850000D03*
%TO.P,J3,6,Pin_6_6*%
%TO.N,ENABLE_1*%
X124375000Y-77850000D03*
%TO.P,J3,7,Pin_7_7*%
%TO.N,+5V*%
X121835000Y-77850000D03*
%TO.P,J3,8,Pin_8_8*%
%TO.N,GND*%
X119295000Y-77850000D03*
%TD*%
D12*
%TO.P,J2,1,Pin_1_1*%
%TO.N,GND*%
X143600000Y-76520000D03*
D13*
%TO.P,J2,2,Pin_2_2*%
%TO.N,+24V*%
X148600000Y-76520000D03*
%TD*%
D14*
%TO.P,C5,1*%
%TO.N,+24V*%
X156800000Y-65800000D03*
D15*
%TO.P,C5,2*%
%TO.N,GND*%
X153000000Y-65800000D03*
%TD*%
D12*
%TO.P,J1,1,Pin_1_1*%
%TO.N,Net-(J1-Pin_1)*%
X123590000Y-38000000D03*
D13*
%TO.P,J1,2,Pin_2_2*%
%TO.N,Net-(J1-Pin_2)*%
X128590000Y-38000000D03*
%TD*%
D12*
%TO.P,J6,1,Pin_1_1*%
%TO.N,Net-(J6-Pin_1)*%
X139530000Y-38000000D03*
D13*
%TO.P,J6,2,Pin_2_2*%
%TO.N,Net-(J6-Pin_2)*%
X144530000Y-38000000D03*
%TD*%
D16*
%TO.N,GND*%
X135191429Y-60084676D03*
X123952000Y-73126800D03*
%TO.N,OUT_EN_1*%
X116516667Y-62737500D03*
X135261531Y-62749981D03*
X125850000Y-71600000D03*
%TO.N,+5V*%
X121850000Y-66150000D03*
%TO.N,GND*%
X112250000Y-55960000D03*
X153034304Y-60732259D03*
X124300000Y-60137500D03*
X143660000Y-65860000D03*
X143600000Y-72600000D03*
X146000000Y-61181840D03*
%TO.N,OUT_EN_2*%
X138916667Y-62733333D03*
X149900000Y-62750000D03*
%TO.N,+24V*%
X145000000Y-55950000D03*
X156050000Y-55950000D03*
X134050000Y-55950000D03*
%TO.N,Net-(J1-Pin_1)*%
X114662500Y-43600000D03*
X120537500Y-49275000D03*
X117600000Y-49275000D03*
X114662500Y-49275000D03*
X114662500Y-46300000D03*
X120537500Y-46300000D03*
X117600000Y-46300000D03*
X117600000Y-43600000D03*
X120537500Y-43600000D03*
%TO.N,Net-(J6-Pin_1)*%
X142487500Y-43600000D03*
X139550000Y-49275000D03*
X139550000Y-43600000D03*
X139550000Y-46300000D03*
X136612500Y-49275000D03*
X136612500Y-43600000D03*
X142487500Y-46300000D03*
X136612500Y-46300000D03*
X142487500Y-49275000D03*
%TO.N,Net-(J6-Pin_2)*%
X147587500Y-43600000D03*
X147587500Y-46300000D03*
X147587500Y-49275000D03*
X150525000Y-49275000D03*
X150525000Y-46300000D03*
X153462500Y-49275000D03*
X153462500Y-46300000D03*
X150525000Y-43600000D03*
X153462500Y-43600000D03*
%TO.N,Net-(J1-Pin_2)*%
X128600000Y-43600000D03*
X125662500Y-46300000D03*
X131670000Y-46300000D03*
X131670000Y-49275000D03*
X128615000Y-49275000D03*
X131537500Y-43600000D03*
X125662500Y-43600000D03*
X128615000Y-46300000D03*
X125662500Y-49275000D03*
%TO.N,+24V*%
X123100000Y-56050000D03*
%TD*%
%TO.N,GND*%
D17*
X124002800Y-64337500D02*
X112350000Y-64337500D01*
X124002800Y-72752800D02*
X124002800Y-64337500D01*
X112350000Y-64337500D02*
X112262500Y-64250000D01*
X123952000Y-72803600D02*
X124002800Y-72752800D01*
X123952000Y-73126800D02*
X123952000Y-72803600D01*
%TO.N,+5V*%
X121850000Y-66150000D02*
X121850000Y-77790000D01*
%TO.N,OUT_EN_2*%
X149861200Y-62788800D02*
X149900000Y-62750000D01*
X138972134Y-62788800D02*
X149861200Y-62788800D01*
X138916667Y-62733333D02*
X138972134Y-62788800D01*
%TO.N,GND*%
X124312500Y-60150000D02*
X124300000Y-60137500D01*
X152452045Y-60150000D02*
X124312500Y-60150000D01*
X153034304Y-60732259D02*
X152452045Y-60150000D01*
%TO.N,OUT_EN_1*%
X116900000Y-62750000D02*
X116887500Y-62737500D01*
X125870000Y-71580000D02*
X125870000Y-62750000D01*
X135261512Y-62750000D02*
X116900000Y-62750000D01*
X125870000Y-62750000D02*
X126500000Y-62750000D01*
X116887500Y-62737500D02*
X116516667Y-62737500D01*
X135261531Y-62749981D02*
X135261512Y-62750000D01*
X125850000Y-71600000D02*
X125870000Y-71580000D01*
%TO.N,GND*%
X112262500Y-64250000D02*
X112262500Y-68172500D01*
X112262500Y-60137500D02*
X112250000Y-60150000D01*
X112262500Y-60137500D02*
X112262500Y-64250000D01*
D18*
X143660000Y-65860000D02*
X143720000Y-65800000D01*
X143660000Y-65860000D02*
X143600000Y-65920000D01*
X143600000Y-76520000D02*
X143600000Y-76500000D01*
D17*
X119127500Y-68172500D02*
X119300000Y-68345000D01*
D18*
X153000000Y-60656771D02*
X153000000Y-65800000D01*
X143720000Y-65800000D02*
X153000000Y-65800000D01*
X143600000Y-65920000D02*
X143600000Y-76520000D01*
D17*
X112262500Y-68172500D02*
X119127500Y-68172500D01*
X112250000Y-60150000D02*
X112250000Y-55960000D01*
X119300000Y-68345000D02*
X119300000Y-77780000D01*
X124300000Y-60137500D02*
X112262500Y-60137500D01*
%TO.N,+24V*%
D18*
X156600000Y-69800000D02*
X156800000Y-69600000D01*
X156750000Y-55950000D02*
X156050000Y-55950000D01*
X148600000Y-69800000D02*
X156600000Y-69800000D01*
X156800000Y-65800000D02*
X156800000Y-56000000D01*
X156800000Y-56000000D02*
X156750000Y-55950000D01*
X156800000Y-69600000D02*
X156800000Y-65800000D01*
X148600000Y-76520000D02*
X148600000Y-69800000D01*
X123150000Y-56000000D02*
X123100000Y-56050000D01*
X155775000Y-56000000D02*
X123150000Y-56000000D01*
X155825000Y-56050000D02*
X155775000Y-56000000D01*
%TD*%
%TA.AperFunction,Conductor*%
%TO.N,GND*%
G36*
X158742441Y-51672652D02*
G01*
X158788246Y-51725413D01*
X158799500Y-51777030D01*
X158799500Y-54999462D01*
X158779815Y-55066501D01*
X158727011Y-55112256D01*
X158657853Y-55122200D01*
X158594297Y-55093175D01*
X158568113Y-55061462D01*
X158522096Y-54981758D01*
X158466927Y-54886203D01*
X158466924Y-54886197D01*
X158397611Y-54795868D01*
X158307283Y-54678149D01*
X158307280Y-54678146D01*
X158307277Y-54678142D01*
X158071856Y-54442721D01*
X158071849Y-54442715D01*
X157928964Y-54333076D01*
X157928962Y-54333074D01*
X157863802Y-54283075D01*
X157636700Y-54151958D01*
X157636690Y-54151954D01*
X157394419Y-54051602D01*
X157272255Y-54018868D01*
X157141116Y-53983729D01*
X157141115Y-53983728D01*
X157141112Y-53983728D01*
X157011118Y-53966615D01*
X156881127Y-53949500D01*
X156881120Y-53949500D01*
X155918880Y-53949500D01*
X155918872Y-53949500D01*
X155671402Y-53982081D01*
X155658884Y-53983730D01*
X155658877Y-53983732D01*
X155615797Y-53995275D01*
X155583705Y-53999500D01*
X123018872Y-53999500D01*
X122871768Y-54018868D01*
X122871767Y-54018868D01*
X122758888Y-54033728D01*
X122505580Y-54101602D01*
X122263314Y-54201951D01*
X122263299Y-54201958D01*
X122036201Y-54333072D01*
X121986689Y-54371064D01*
X121945868Y-54402388D01*
X121828150Y-54492715D01*
X121828143Y-54492721D01*
X121592721Y-54728143D01*
X121592715Y-54728150D01*
X121433075Y-54936198D01*
X121301958Y-55163299D01*
X121301954Y-55163309D01*
X121201602Y-55405580D01*
X121133728Y-55658887D01*
X121099501Y-55918879D01*
X121099501Y-56181120D01*
X121133728Y-56441112D01*
X121201602Y-56694419D01*
X121301954Y-56936690D01*
X121301958Y-56936700D01*
X121433075Y-57163801D01*
X121592715Y-57371849D01*
X121592721Y-57371856D01*
X121778143Y-57557278D01*
X121778150Y-57557284D01*
X121986198Y-57716924D01*
X122213299Y-57848041D01*
X122213300Y-57848041D01*
X122213303Y-57848043D01*
X122455581Y-57948398D01*
X122708884Y-58016271D01*
X122903881Y-58041942D01*
X122968879Y-58050499D01*
X122968880Y-58050499D01*
X123231121Y-58050499D01*
X123258214Y-58046931D01*
X123491116Y-58016271D01*
X123527526Y-58006514D01*
X123534207Y-58004725D01*
X123566299Y-58000500D01*
X154675500Y-58000500D01*
X154742539Y-58020185D01*
X154788294Y-58072989D01*
X154799500Y-58124500D01*
X154799500Y-67675500D01*
X154779815Y-67742539D01*
X154727011Y-67788294D01*
X154675500Y-67799500D01*
X148468872Y-67799500D01*
X148237772Y-67829926D01*
X148208884Y-67833730D01*
X147955581Y-67901602D01*
X147955571Y-67901605D01*
X147713309Y-68001953D01*
X147713299Y-68001958D01*
X147486196Y-68133075D01*
X147278148Y-68292718D01*
X147092718Y-68478148D01*
X146933075Y-68686196D01*
X146801958Y-68913299D01*
X146801953Y-68913309D01*
X146701605Y-69155571D01*
X146701602Y-69155581D01*
X146633730Y-69408885D01*
X146599500Y-69668872D01*
X146599500Y-74974666D01*
X146579815Y-75041705D01*
X146572449Y-75051976D01*
X146557479Y-75070748D01*
X146557478Y-75070749D01*
X146408053Y-75308557D01*
X146286200Y-75561588D01*
X146241041Y-75690645D01*
X146200319Y-75747421D01*
X146135367Y-75773168D01*
X146066805Y-75759712D01*
X146016402Y-75711324D01*
X146000000Y-75649690D01*
X146000000Y-75315293D01*
X145999999Y-75315280D01*
X145989517Y-75182093D01*
X145989516Y-75182087D01*
X145934101Y-74962170D01*
X145934100Y-74962167D01*
X145840304Y-74755669D01*
X145840301Y-74755663D01*
X145711148Y-74569241D01*
X145711138Y-74569229D01*
X145550770Y-74408861D01*
X145550758Y-74408851D01*
X145364336Y-74279698D01*
X145364330Y-74279695D01*
X145157832Y-74185899D01*
X145157829Y-74185898D01*
X144937912Y-74130483D01*
X144937906Y-74130482D01*
X144804719Y-74120000D01*
X144000000Y-74120000D01*
X144000000Y-78920000D01*
X144804706Y-78920000D01*
X144804719Y-78919999D01*
X144937906Y-78909517D01*
X144937912Y-78909516D01*
X145157829Y-78854101D01*
X145157832Y-78854100D01*
X145364330Y-78760304D01*
X145364336Y-78760301D01*
X145550758Y-78631148D01*
X145550770Y-78631138D01*
X145711138Y-78470770D01*
X145711148Y-78470758D01*
X145840301Y-78284336D01*
X145840304Y-78284330D01*
X145934100Y-78077832D01*
X145934101Y-78077829D01*
X145989516Y-77857912D01*
X145989517Y-77857906D01*
X145999999Y-77724719D01*
X146000000Y-77724706D01*
X146000000Y-77390309D01*
X146019685Y-77323270D01*
X146072489Y-77277515D01*
X146141647Y-77267571D01*
X146205203Y-77296596D01*
X146241041Y-77349354D01*
X146286200Y-77478411D01*
X146408053Y-77731442D01*
X146415789Y-77743753D01*
X146557477Y-77969248D01*
X146732584Y-78188825D01*
X146931175Y-78387416D01*
X147150752Y-78562523D01*
X147388555Y-78711945D01*
X147641592Y-78833801D01*
X147773933Y-78880109D01*
X147906670Y-78926556D01*
X147906682Y-78926560D01*
X148180491Y-78989055D01*
X148180497Y-78989055D01*
X148180505Y-78989057D01*
X148322460Y-79005051D01*
X148459569Y-79020499D01*
X148459572Y-79020500D01*
X148459575Y-79020500D01*
X148740428Y-79020500D01*
X148740429Y-79020499D01*
X148883055Y-79004429D01*
X149019494Y-78989057D01*
X149019499Y-78989056D01*
X149019509Y-78989055D01*
X149293318Y-78926560D01*
X149558408Y-78833801D01*
X149811445Y-78711945D01*
X150049248Y-78562523D01*
X150268825Y-78387416D01*
X150467416Y-78188825D01*
X150642523Y-77969248D01*
X150791945Y-77731445D01*
X150913801Y-77478408D01*
X151006560Y-77213318D01*
X151069055Y-76939509D01*
X151100500Y-76660425D01*
X151100500Y-76379575D01*
X151069055Y-76100491D01*
X151064084Y-76078711D01*
X153849500Y-76078711D01*
X153849500Y-76321288D01*
X153880426Y-76556204D01*
X153881162Y-76561789D01*
X153890984Y-76598444D01*
X153943947Y-76796104D01*
X154016064Y-76970209D01*
X154036776Y-77020212D01*
X154158064Y-77230289D01*
X154158066Y-77230292D01*
X154158067Y-77230293D01*
X154305733Y-77422736D01*
X154305739Y-77422743D01*
X154477256Y-77594260D01*
X154477262Y-77594265D01*
X154669711Y-77741936D01*
X154879788Y-77863224D01*
X155103900Y-77956054D01*
X155338211Y-78018838D01*
X155518586Y-78042584D01*
X155578711Y-78050500D01*
X155578712Y-78050500D01*
X155821289Y-78050500D01*
X155869388Y-78044167D01*
X156061789Y-78018838D01*
X156296100Y-77956054D01*
X156520212Y-77863224D01*
X156730289Y-77741936D01*
X156922738Y-77594265D01*
X157094265Y-77422738D01*
X157241936Y-77230289D01*
X157363224Y-77020212D01*
X157456054Y-76796100D01*
X157518838Y-76561789D01*
X157550500Y-76321288D01*
X157550500Y-76078712D01*
X157518838Y-75838211D01*
X157456054Y-75603900D01*
X157363224Y-75379788D01*
X157241936Y-75169711D01*
X157094265Y-74977262D01*
X157094260Y-74977256D01*
X156922743Y-74805739D01*
X156922736Y-74805733D01*
X156730293Y-74658067D01*
X156730292Y-74658066D01*
X156730289Y-74658064D01*
X156520212Y-74536776D01*
X156520205Y-74536773D01*
X156296104Y-74443947D01*
X156061785Y-74381161D01*
X155821289Y-74349500D01*
X155821288Y-74349500D01*
X155578712Y-74349500D01*
X155578711Y-74349500D01*
X155338214Y-74381161D01*
X155103895Y-74443947D01*
X154879794Y-74536773D01*
X154879785Y-74536777D01*
X154669706Y-74658067D01*
X154477263Y-74805733D01*
X154477256Y-74805739D01*
X154305739Y-74977256D01*
X154305733Y-74977263D01*
X154158067Y-75169706D01*
X154036777Y-75379785D01*
X154036773Y-75379794D01*
X153943947Y-75603895D01*
X153881161Y-75838214D01*
X153849500Y-76078711D01*
X151064084Y-76078711D01*
X151006560Y-75826682D01*
X150913801Y-75561592D01*
X150791945Y-75308555D01*
X150642523Y-75070752D01*
X150642520Y-75070748D01*
X150627551Y-75051976D01*
X150601144Y-74987289D01*
X150600500Y-74974666D01*
X150600500Y-71924500D01*
X150620185Y-71857461D01*
X150672989Y-71811706D01*
X150724500Y-71800500D01*
X156731113Y-71800500D01*
X156731120Y-71800500D01*
X156861118Y-71783385D01*
X156991116Y-71766271D01*
X157244419Y-71698398D01*
X157486697Y-71598043D01*
X157541730Y-71566270D01*
X157713803Y-71466924D01*
X157804131Y-71397611D01*
X157921851Y-71307283D01*
X158307283Y-70921851D01*
X158466691Y-70714106D01*
X158466924Y-70713803D01*
X158568291Y-70538228D01*
X158568429Y-70537993D01*
X158593665Y-70514173D01*
X158618680Y-70490322D01*
X158619000Y-70490260D01*
X158619240Y-70490034D01*
X158653312Y-70483646D01*
X158687287Y-70477098D01*
X158687592Y-70477220D01*
X158687914Y-70477160D01*
X158719922Y-70490163D01*
X158752152Y-70503066D01*
X158752342Y-70503333D01*
X158752646Y-70503457D01*
X158772588Y-70531764D01*
X158792680Y-70559980D01*
X158792747Y-70560380D01*
X158792885Y-70560576D01*
X158792920Y-70561410D01*
X158799500Y-70600537D01*
X158799500Y-79175500D01*
X158779815Y-79242539D01*
X158727011Y-79288294D01*
X158675500Y-79299500D01*
X138331894Y-79299500D01*
X138264855Y-79279815D01*
X138219100Y-79227011D01*
X138209156Y-79157853D01*
X138238181Y-79094297D01*
X138257582Y-79076234D01*
X138282546Y-79057546D01*
X138368796Y-78942331D01*
X138419091Y-78807483D01*
X138425500Y-78747873D01*
X138425499Y-77724719D01*
X141200000Y-77724719D01*
X141210482Y-77857906D01*
X141210483Y-77857912D01*
X141265898Y-78077829D01*
X141265899Y-78077832D01*
X141359695Y-78284330D01*
X141359698Y-78284336D01*
X141488851Y-78470758D01*
X141488861Y-78470770D01*
X141649229Y-78631138D01*
X141649241Y-78631148D01*
X141835663Y-78760301D01*
X141835669Y-78760304D01*
X142042167Y-78854100D01*
X142042170Y-78854101D01*
X142262087Y-78909516D01*
X142262093Y-78909517D01*
X142395280Y-78919999D01*
X142395294Y-78920000D01*
X143200000Y-78920000D01*
X143200000Y-76920000D01*
X141200000Y-76920000D01*
X141200000Y-77724719D01*
X138425499Y-77724719D01*
X138425499Y-76952128D01*
X138419091Y-76892517D01*
X138418869Y-76891923D01*
X138368797Y-76757671D01*
X138368793Y-76757664D01*
X138282547Y-76642455D01*
X138282544Y-76642452D01*
X138167335Y-76556206D01*
X138167328Y-76556202D01*
X138032482Y-76505908D01*
X138032483Y-76505908D01*
X137972883Y-76499501D01*
X137972881Y-76499500D01*
X137972873Y-76499500D01*
X137972864Y-76499500D01*
X136177129Y-76499500D01*
X136177123Y-76499501D01*
X136117516Y-76505908D01*
X135982671Y-76556202D01*
X135982664Y-76556206D01*
X135867455Y-76642452D01*
X135867452Y-76642455D01*
X135781206Y-76757664D01*
X135781203Y-76757669D01*
X135732189Y-76889083D01*
X135690317Y-76945016D01*
X135624853Y-76969433D01*
X135556580Y-76954581D01*
X135528326Y-76933430D01*
X135414786Y-76819890D01*
X135242820Y-76694951D01*
X135053414Y-76598444D01*
X135053413Y-76598443D01*
X135053412Y-76598443D01*
X134851243Y-76532754D01*
X134851241Y-76532753D01*
X134851240Y-76532753D01*
X134689957Y-76507208D01*
X134641287Y-76499500D01*
X134428713Y-76499500D01*
X134380042Y-76507208D01*
X134218760Y-76532753D01*
X134016585Y-76598444D01*
X133827179Y-76694951D01*
X133655213Y-76819890D01*
X133504890Y-76970213D01*
X133379949Y-77142182D01*
X133375484Y-77150946D01*
X133327509Y-77201742D01*
X133259688Y-77218536D01*
X133193553Y-77195998D01*
X133154516Y-77150946D01*
X133150050Y-77142182D01*
X133025109Y-76970213D01*
X132874786Y-76819890D01*
X132702820Y-76694951D01*
X132513414Y-76598444D01*
X132513413Y-76598443D01*
X132513412Y-76598443D01*
X132311243Y-76532754D01*
X132311241Y-76532753D01*
X132311240Y-76532753D01*
X132149957Y-76507208D01*
X132101287Y-76499500D01*
X131888713Y-76499500D01*
X131840042Y-76507208D01*
X131678760Y-76532753D01*
X131476585Y-76598444D01*
X131287179Y-76694951D01*
X131115213Y-76819890D01*
X130964890Y-76970213D01*
X130839949Y-77142182D01*
X130835484Y-77150946D01*
X130787509Y-77201742D01*
X130719688Y-77218536D01*
X130653553Y-77195998D01*
X130614516Y-77150946D01*
X130610050Y-77142182D01*
X130485109Y-76970213D01*
X130334786Y-76819890D01*
X130162820Y-76694951D01*
X129973414Y-76598444D01*
X129973413Y-76598443D01*
X129973412Y-76598443D01*
X129771243Y-76532754D01*
X129771241Y-76532753D01*
X129771240Y-76532753D01*
X129609957Y-76507208D01*
X129561287Y-76499500D01*
X129348713Y-76499500D01*
X129300042Y-76507208D01*
X129138760Y-76532753D01*
X128936585Y-76598444D01*
X128747179Y-76694951D01*
X128575213Y-76819890D01*
X128424890Y-76970213D01*
X128299949Y-77142182D01*
X128295484Y-77150946D01*
X128247509Y-77201742D01*
X128179688Y-77218536D01*
X128113553Y-77195998D01*
X128074516Y-77150946D01*
X128070050Y-77142182D01*
X127945109Y-76970213D01*
X127794786Y-76819890D01*
X127622820Y-76694951D01*
X127433414Y-76598444D01*
X127433413Y-76598443D01*
X127433412Y-76598443D01*
X127231243Y-76532754D01*
X127231241Y-76532753D01*
X127231240Y-76532753D01*
X127069957Y-76507208D01*
X127021287Y-76499500D01*
X126808713Y-76499500D01*
X126760042Y-76507208D01*
X126598760Y-76532753D01*
X126396585Y-76598444D01*
X126207179Y-76694951D01*
X126035213Y-76819890D01*
X125884890Y-76970213D01*
X125759949Y-77142182D01*
X125755484Y-77150946D01*
X125707509Y-77201742D01*
X125639688Y-77218536D01*
X125573553Y-77195998D01*
X125534516Y-77150946D01*
X125530050Y-77142182D01*
X125405109Y-76970213D01*
X125254786Y-76819890D01*
X125082820Y-76694951D01*
X124893414Y-76598444D01*
X124893413Y-76598443D01*
X124893412Y-76598443D01*
X124691243Y-76532754D01*
X124691241Y-76532753D01*
X124691240Y-76532753D01*
X124529957Y-76507208D01*
X124481287Y-76499500D01*
X124268713Y-76499500D01*
X124220042Y-76507208D01*
X124058760Y-76532753D01*
X123856585Y-76598444D01*
X123667179Y-76694951D01*
X123495213Y-76819890D01*
X123344890Y-76970213D01*
X123219949Y-77142182D01*
X123215484Y-77150946D01*
X123167509Y-77201742D01*
X123099688Y-77218536D01*
X123033553Y-77195998D01*
X122994516Y-77150946D01*
X122990050Y-77142182D01*
X122865109Y-76970213D01*
X122786819Y-76891923D01*
X122753334Y-76830600D01*
X122750500Y-76804242D01*
X122750500Y-76490163D01*
X143450000Y-76490163D01*
X143450000Y-76549837D01*
X143472836Y-76604968D01*
X143515032Y-76647164D01*
X143570163Y-76670000D01*
X143629837Y-76670000D01*
X143684968Y-76647164D01*
X143727164Y-76604968D01*
X143750000Y-76549837D01*
X143750000Y-76490163D01*
X143727164Y-76435032D01*
X143684968Y-76392836D01*
X143629837Y-76370000D01*
X143570163Y-76370000D01*
X143515032Y-76392836D01*
X143472836Y-76435032D01*
X143450000Y-76490163D01*
X122750500Y-76490163D01*
X122750500Y-75315280D01*
X141200000Y-75315280D01*
X141200000Y-76120000D01*
X143200000Y-76120000D01*
X143200000Y-74120000D01*
X142395280Y-74120000D01*
X142262093Y-74130482D01*
X142262087Y-74130483D01*
X142042170Y-74185898D01*
X142042167Y-74185899D01*
X141835669Y-74279695D01*
X141835663Y-74279698D01*
X141649241Y-74408851D01*
X141649229Y-74408861D01*
X141488861Y-74569229D01*
X141488851Y-74569241D01*
X141359698Y-74755663D01*
X141359695Y-74755669D01*
X141265899Y-74962167D01*
X141265898Y-74962170D01*
X141210483Y-75182087D01*
X141210482Y-75182093D01*
X141200000Y-75315280D01*
X122750500Y-75315280D01*
X122750500Y-67281469D01*
X122770185Y-67214430D01*
X122786819Y-67193788D01*
X122918242Y-67062365D01*
X123047815Y-66884022D01*
X123147895Y-66687606D01*
X123216015Y-66477951D01*
X123250500Y-66260222D01*
X123250500Y-66039778D01*
X123216015Y-65822049D01*
X123175606Y-65697682D01*
X123147896Y-65612396D01*
X123147895Y-65612393D01*
X123113237Y-65544375D01*
X123047815Y-65415978D01*
X123031260Y-65393192D01*
X122918247Y-65237641D01*
X122918243Y-65237636D01*
X122762363Y-65081756D01*
X122762358Y-65081752D01*
X122584025Y-64952187D01*
X122584024Y-64952186D01*
X122584022Y-64952185D01*
X122521096Y-64920122D01*
X122387606Y-64852104D01*
X122387603Y-64852103D01*
X122177952Y-64783985D01*
X122069086Y-64766742D01*
X121960222Y-64749500D01*
X121739778Y-64749500D01*
X121667201Y-64760995D01*
X121522047Y-64783985D01*
X121312396Y-64852103D01*
X121312393Y-64852104D01*
X121115974Y-64952187D01*
X120937641Y-65081752D01*
X120937636Y-65081756D01*
X120781756Y-65237636D01*
X120781752Y-65237641D01*
X120652187Y-65415974D01*
X120552104Y-65612393D01*
X120552103Y-65612396D01*
X120483985Y-65822047D01*
X120449500Y-66039778D01*
X120449500Y-66260221D01*
X120483985Y-66477952D01*
X120552103Y-66687603D01*
X120552104Y-66687606D01*
X120652187Y-66884025D01*
X120781752Y-67062358D01*
X120781756Y-67062363D01*
X120913181Y-67193788D01*
X120946666Y-67255111D01*
X120949500Y-67281469D01*
X120949500Y-76774242D01*
X120929815Y-76841281D01*
X120913181Y-76861923D01*
X120804894Y-76970209D01*
X120804890Y-76970213D01*
X120679950Y-77142180D01*
X120669466Y-77162756D01*
X120621489Y-77213550D01*
X120553668Y-77230343D01*
X120539586Y-77228931D01*
X120489660Y-77221023D01*
X119860686Y-77849999D01*
X119860686Y-77850000D01*
X120489660Y-78478975D01*
X120539585Y-78471068D01*
X120608879Y-78480023D01*
X120662331Y-78525019D01*
X120669467Y-78537245D01*
X120679949Y-78557817D01*
X120804890Y-78729786D01*
X120955213Y-78880109D01*
X121105166Y-78989054D01*
X121127184Y-79005051D01*
X121230211Y-79057546D01*
X121244870Y-79065015D01*
X121295666Y-79112990D01*
X121312461Y-79180811D01*
X121289924Y-79246946D01*
X121235208Y-79290397D01*
X121188575Y-79299500D01*
X119940324Y-79299500D01*
X119873285Y-79279815D01*
X119827530Y-79227011D01*
X119817586Y-79157853D01*
X119846611Y-79094297D01*
X119884028Y-79065016D01*
X119923975Y-79044661D01*
X119923975Y-79044660D01*
X119295001Y-78415686D01*
X119295000Y-78415686D01*
X118666023Y-79044660D01*
X118705971Y-79065015D01*
X118756767Y-79112990D01*
X118773562Y-79180811D01*
X118751024Y-79246946D01*
X118696309Y-79290397D01*
X118649676Y-79299500D01*
X109674500Y-79299500D01*
X109607461Y-79279815D01*
X109561706Y-79227011D01*
X109550500Y-79175500D01*
X109550500Y-76128711D01*
X110749500Y-76128711D01*
X110749500Y-76371288D01*
X110781161Y-76611785D01*
X110843947Y-76846104D01*
X110895355Y-76970213D01*
X110936776Y-77070212D01*
X111058064Y-77280289D01*
X111058066Y-77280292D01*
X111058067Y-77280293D01*
X111205733Y-77472736D01*
X111205739Y-77472743D01*
X111377256Y-77644260D01*
X111377261Y-77644264D01*
X111377262Y-77644265D01*
X111569711Y-77791936D01*
X111779788Y-77913224D01*
X112003900Y-78006054D01*
X112238211Y-78068838D01*
X112418586Y-78092584D01*
X112478711Y-78100500D01*
X112478712Y-78100500D01*
X112721289Y-78100500D01*
X112769388Y-78094167D01*
X112961789Y-78068838D01*
X113196100Y-78006054D01*
X113420212Y-77913224D01*
X113630289Y-77791936D01*
X113693082Y-77743753D01*
X117945000Y-77743753D01*
X117945000Y-77956246D01*
X117978242Y-78166127D01*
X117978242Y-78166130D01*
X118043904Y-78368217D01*
X118043906Y-78368220D01*
X118100338Y-78478975D01*
X118729314Y-77850000D01*
X118699477Y-77820163D01*
X119145000Y-77820163D01*
X119145000Y-77879837D01*
X119167836Y-77934968D01*
X119210032Y-77977164D01*
X119265163Y-78000000D01*
X119324837Y-78000000D01*
X119379968Y-77977164D01*
X119422164Y-77934968D01*
X119445000Y-77879837D01*
X119445000Y-77820163D01*
X119422164Y-77765032D01*
X119379968Y-77722836D01*
X119324837Y-77700000D01*
X119265163Y-77700000D01*
X119210032Y-77722836D01*
X119167836Y-77765032D01*
X119145000Y-77820163D01*
X118699477Y-77820163D01*
X118100337Y-77221023D01*
X118043905Y-77331780D01*
X118043905Y-77331781D01*
X117978242Y-77533869D01*
X117978242Y-77533872D01*
X117945000Y-77743753D01*
X113693082Y-77743753D01*
X113822738Y-77644265D01*
X113994265Y-77472738D01*
X114141936Y-77280289D01*
X114263224Y-77070212D01*
X114356054Y-76846100D01*
X114407169Y-76655337D01*
X118666023Y-76655337D01*
X119295000Y-77284314D01*
X119295001Y-77284314D01*
X119923975Y-76655338D01*
X119813220Y-76598906D01*
X119813217Y-76598904D01*
X119611128Y-76533242D01*
X119401246Y-76500000D01*
X119188754Y-76500000D01*
X118978872Y-76533242D01*
X118978869Y-76533242D01*
X118776781Y-76598905D01*
X118776780Y-76598905D01*
X118666023Y-76655337D01*
X114407169Y-76655337D01*
X114418838Y-76611789D01*
X114450500Y-76371288D01*
X114450500Y-76128712D01*
X114443917Y-76078712D01*
X114418838Y-75888214D01*
X114418838Y-75888211D01*
X114356054Y-75653900D01*
X114263224Y-75429788D01*
X114141936Y-75219711D01*
X114013229Y-75051976D01*
X113994266Y-75027263D01*
X113994260Y-75027256D01*
X113822743Y-74855739D01*
X113822736Y-74855733D01*
X113630293Y-74708067D01*
X113630292Y-74708066D01*
X113630289Y-74708064D01*
X113420212Y-74586776D01*
X113377850Y-74569229D01*
X113196104Y-74493947D01*
X112961785Y-74431161D01*
X112721289Y-74399500D01*
X112721288Y-74399500D01*
X112478712Y-74399500D01*
X112478711Y-74399500D01*
X112238214Y-74431161D01*
X112003895Y-74493947D01*
X111779794Y-74586773D01*
X111779785Y-74586777D01*
X111569706Y-74708067D01*
X111377263Y-74855733D01*
X111377256Y-74855739D01*
X111205739Y-75027256D01*
X111205733Y-75027263D01*
X111058067Y-75219706D01*
X110936777Y-75429785D01*
X110936773Y-75429794D01*
X110843947Y-75653895D01*
X110781161Y-75888214D01*
X110749500Y-76128711D01*
X109550500Y-76128711D01*
X109550500Y-62627278D01*
X115116167Y-62627278D01*
X115116167Y-62847721D01*
X115150652Y-63065452D01*
X115218770Y-63275103D01*
X115218771Y-63275106D01*
X115286789Y-63408596D01*
X115316730Y-63467358D01*
X115318854Y-63471525D01*
X115448419Y-63649858D01*
X115448423Y-63649863D01*
X115604303Y-63805743D01*
X115604308Y-63805747D01*
X115759859Y-63918760D01*
X115782645Y-63935315D01*
X115911042Y-64000737D01*
X115979060Y-64035395D01*
X115979063Y-64035396D01*
X116083888Y-64069455D01*
X116188716Y-64103515D01*
X116406445Y-64138000D01*
X116406446Y-64138000D01*
X116626888Y-64138000D01*
X116626889Y-64138000D01*
X116844618Y-64103515D01*
X117054273Y-64035395D01*
X117250689Y-63935315D01*
X117429032Y-63805742D01*
X117547955Y-63686819D01*
X117609278Y-63653334D01*
X117635636Y-63650500D01*
X124845500Y-63650500D01*
X124912539Y-63670185D01*
X124958294Y-63722989D01*
X124969500Y-63774500D01*
X124969500Y-70448530D01*
X124949815Y-70515569D01*
X124933182Y-70536211D01*
X124781751Y-70687642D01*
X124652187Y-70865974D01*
X124552104Y-71062393D01*
X124552103Y-71062396D01*
X124483985Y-71272047D01*
X124449500Y-71489778D01*
X124449500Y-71710221D01*
X124483985Y-71927952D01*
X124552103Y-72137603D01*
X124552104Y-72137606D01*
X124652187Y-72334025D01*
X124781752Y-72512358D01*
X124781756Y-72512363D01*
X124937636Y-72668243D01*
X124937641Y-72668247D01*
X125093192Y-72781260D01*
X125115978Y-72797815D01*
X125244375Y-72863237D01*
X125312393Y-72897895D01*
X125312396Y-72897896D01*
X125417221Y-72931955D01*
X125522049Y-72966015D01*
X125739778Y-73000500D01*
X125739779Y-73000500D01*
X125960221Y-73000500D01*
X125960222Y-73000500D01*
X126177951Y-72966015D01*
X126387606Y-72897895D01*
X126584022Y-72797815D01*
X126762365Y-72668242D01*
X126918242Y-72512365D01*
X127047815Y-72334022D01*
X127147895Y-72137606D01*
X127216015Y-71927951D01*
X127250500Y-71710222D01*
X127250500Y-71489778D01*
X127216015Y-71272049D01*
X127147895Y-71062394D01*
X127147895Y-71062393D01*
X127113237Y-70994375D01*
X127047815Y-70865978D01*
X126941982Y-70720310D01*
X126918247Y-70687641D01*
X126918243Y-70687636D01*
X126806819Y-70576212D01*
X126773334Y-70514889D01*
X126770500Y-70488531D01*
X126770500Y-66957485D01*
X152408198Y-66957485D01*
X152500968Y-67004755D01*
X152695582Y-67067990D01*
X152897683Y-67100000D01*
X153102317Y-67100000D01*
X153304417Y-67067990D01*
X153499031Y-67004755D01*
X153591801Y-66957485D01*
X153000001Y-66365685D01*
X153000000Y-66365685D01*
X152408198Y-66957485D01*
X126770500Y-66957485D01*
X126770500Y-65697682D01*
X151700000Y-65697682D01*
X151700000Y-65902317D01*
X151732009Y-66104417D01*
X151795243Y-66299027D01*
X151795246Y-66299034D01*
X151842512Y-66391801D01*
X152434314Y-65800000D01*
X152434314Y-65799999D01*
X152404478Y-65770163D01*
X152850000Y-65770163D01*
X152850000Y-65829837D01*
X152872836Y-65884968D01*
X152915032Y-65927164D01*
X152970163Y-65950000D01*
X153029837Y-65950000D01*
X153084968Y-65927164D01*
X153127164Y-65884968D01*
X153150000Y-65829837D01*
X153150000Y-65799999D01*
X153565685Y-65799999D01*
X153565685Y-65800000D01*
X154157485Y-66391800D01*
X154204755Y-66299031D01*
X154267990Y-66104417D01*
X154300000Y-65902317D01*
X154300000Y-65697682D01*
X154267990Y-65495582D01*
X154204755Y-65300968D01*
X154157485Y-65208198D01*
X153565685Y-65799999D01*
X153150000Y-65799999D01*
X153150000Y-65770163D01*
X153127164Y-65715032D01*
X153084968Y-65672836D01*
X153029837Y-65650000D01*
X152970163Y-65650000D01*
X152915032Y-65672836D01*
X152872836Y-65715032D01*
X152850000Y-65770163D01*
X152404478Y-65770163D01*
X151842512Y-65208197D01*
X151795242Y-65300973D01*
X151795242Y-65300974D01*
X151732010Y-65495578D01*
X151732010Y-65495581D01*
X151700000Y-65697682D01*
X126770500Y-65697682D01*
X126770500Y-64642512D01*
X152408197Y-64642512D01*
X153000000Y-65234314D01*
X153000001Y-65234314D01*
X153591801Y-64642512D01*
X153499034Y-64595246D01*
X153499027Y-64595243D01*
X153304417Y-64532009D01*
X153102317Y-64500000D01*
X152897683Y-64500000D01*
X152695581Y-64532010D01*
X152695578Y-64532010D01*
X152500974Y-64595242D01*
X152500973Y-64595242D01*
X152408197Y-64642512D01*
X126770500Y-64642512D01*
X126770500Y-63774500D01*
X126790185Y-63707461D01*
X126842989Y-63661706D01*
X126894500Y-63650500D01*
X134130080Y-63650500D01*
X134197119Y-63670185D01*
X134217761Y-63686818D01*
X134349166Y-63818223D01*
X134349169Y-63818225D01*
X134349173Y-63818229D01*
X134504591Y-63931145D01*
X134527509Y-63947796D01*
X134655906Y-64013218D01*
X134723924Y-64047876D01*
X134723927Y-64047877D01*
X134828752Y-64081936D01*
X134933580Y-64115996D01*
X135151309Y-64150481D01*
X135151310Y-64150481D01*
X135371752Y-64150481D01*
X135371753Y-64150481D01*
X135589482Y-64115996D01*
X135791573Y-64050333D01*
X135799134Y-64047877D01*
X135799137Y-64047876D01*
X135831810Y-64031228D01*
X135995553Y-63947796D01*
X136173896Y-63818223D01*
X136329773Y-63662346D01*
X136459346Y-63484003D01*
X136559426Y-63287587D01*
X136627546Y-63077932D01*
X136662031Y-62860203D01*
X136662031Y-62639759D01*
X136659394Y-62623111D01*
X137516167Y-62623111D01*
X137516167Y-62843554D01*
X137550652Y-63061285D01*
X137618770Y-63270936D01*
X137618771Y-63270939D01*
X137718854Y-63467358D01*
X137848419Y-63645691D01*
X137848423Y-63645696D01*
X138004303Y-63801576D01*
X138004308Y-63801580D01*
X138159859Y-63914593D01*
X138182645Y-63931148D01*
X138311042Y-63996570D01*
X138379060Y-64031228D01*
X138379063Y-64031229D01*
X138483888Y-64065288D01*
X138588716Y-64099348D01*
X138806445Y-64133833D01*
X138806446Y-64133833D01*
X139026888Y-64133833D01*
X139026889Y-64133833D01*
X139244618Y-64099348D01*
X139454273Y-64031228D01*
X139650689Y-63931148D01*
X139829032Y-63801575D01*
X139904988Y-63725619D01*
X139966311Y-63692134D01*
X139992669Y-63689300D01*
X148807331Y-63689300D01*
X148874370Y-63708985D01*
X148895012Y-63725619D01*
X148987636Y-63818243D01*
X148987641Y-63818247D01*
X149143034Y-63931145D01*
X149165978Y-63947815D01*
X149294375Y-64013237D01*
X149362393Y-64047895D01*
X149362396Y-64047896D01*
X149467221Y-64081955D01*
X149572049Y-64116015D01*
X149789778Y-64150500D01*
X149789779Y-64150500D01*
X150010221Y-64150500D01*
X150010222Y-64150500D01*
X150227951Y-64116015D01*
X150437606Y-64047895D01*
X150634022Y-63947815D01*
X150812365Y-63818242D01*
X150968242Y-63662365D01*
X151097815Y-63484022D01*
X151197895Y-63287606D01*
X151266015Y-63077951D01*
X151300500Y-62860222D01*
X151300500Y-62639778D01*
X151266015Y-62422049D01*
X151197895Y-62212394D01*
X151197895Y-62212393D01*
X151163237Y-62144375D01*
X151097815Y-62015978D01*
X150998913Y-61879850D01*
X150968247Y-61837641D01*
X150968243Y-61837636D01*
X150812363Y-61681756D01*
X150812358Y-61681752D01*
X150634025Y-61552187D01*
X150634024Y-61552186D01*
X150634022Y-61552185D01*
X150571096Y-61520122D01*
X150437606Y-61452104D01*
X150437603Y-61452103D01*
X150227952Y-61383985D01*
X150119086Y-61366742D01*
X150010222Y-61349500D01*
X149789778Y-61349500D01*
X149717201Y-61360995D01*
X149572047Y-61383985D01*
X149362396Y-61452103D01*
X149362393Y-61452104D01*
X149165974Y-61552187D01*
X148987641Y-61681752D01*
X148987636Y-61681756D01*
X148831756Y-61837636D01*
X148828586Y-61841348D01*
X148827684Y-61840577D01*
X148776756Y-61879850D01*
X148731766Y-61888300D01*
X140097010Y-61888300D01*
X140029971Y-61868615D01*
X139996693Y-61837187D01*
X139991337Y-61829815D01*
X139984909Y-61820968D01*
X139829032Y-61665091D01*
X139829030Y-61665089D01*
X139829025Y-61665085D01*
X139650692Y-61535520D01*
X139650691Y-61535519D01*
X139650689Y-61535518D01*
X139587763Y-61503455D01*
X139454273Y-61435437D01*
X139454270Y-61435436D01*
X139244619Y-61367318D01*
X139053198Y-61337000D01*
X139026889Y-61332833D01*
X138806445Y-61332833D01*
X138780136Y-61337000D01*
X138588714Y-61367318D01*
X138379063Y-61435436D01*
X138379060Y-61435437D01*
X138182641Y-61535520D01*
X138004308Y-61665085D01*
X138004303Y-61665089D01*
X137848423Y-61820969D01*
X137848419Y-61820974D01*
X137718854Y-61999307D01*
X137618771Y-62195726D01*
X137618770Y-62195729D01*
X137550652Y-62405380D01*
X137516167Y-62623111D01*
X136659394Y-62623111D01*
X136627546Y-62422030D01*
X136559433Y-62212396D01*
X136559427Y-62212377D01*
X136559426Y-62212374D01*
X136524768Y-62144356D01*
X136459346Y-62015959D01*
X136352295Y-61868615D01*
X136329778Y-61837622D01*
X136329774Y-61837617D01*
X136173894Y-61681737D01*
X136173889Y-61681733D01*
X135995556Y-61552168D01*
X135995555Y-61552167D01*
X135995553Y-61552166D01*
X135932627Y-61520103D01*
X135799137Y-61452085D01*
X135799134Y-61452084D01*
X135589483Y-61383966D01*
X135480617Y-61366723D01*
X135371753Y-61349481D01*
X135151309Y-61349481D01*
X135078732Y-61360976D01*
X134933578Y-61383966D01*
X134723927Y-61452084D01*
X134723924Y-61452085D01*
X134527505Y-61552168D01*
X134349173Y-61681732D01*
X134217723Y-61813182D01*
X134156400Y-61846666D01*
X134130042Y-61849500D01*
X117660636Y-61849500D01*
X117593597Y-61829815D01*
X117572955Y-61813181D01*
X117429030Y-61669256D01*
X117429025Y-61669252D01*
X117250692Y-61539687D01*
X117250691Y-61539686D01*
X117250689Y-61539685D01*
X117187763Y-61507622D01*
X117054273Y-61439604D01*
X117054270Y-61439603D01*
X116844619Y-61371485D01*
X116735753Y-61354242D01*
X116626889Y-61337000D01*
X116406445Y-61337000D01*
X116333868Y-61348495D01*
X116188714Y-61371485D01*
X115979063Y-61439603D01*
X115979060Y-61439604D01*
X115782641Y-61539687D01*
X115604308Y-61669252D01*
X115604303Y-61669256D01*
X115448423Y-61825136D01*
X115448419Y-61825141D01*
X115318854Y-62003474D01*
X115218771Y-62199893D01*
X115218770Y-62199896D01*
X115150652Y-62409547D01*
X115116167Y-62627278D01*
X109550500Y-62627278D01*
X109550500Y-51823084D01*
X109570185Y-51756045D01*
X109622989Y-51710290D01*
X109674380Y-51699084D01*
X158675386Y-51653031D01*
X158742441Y-51672652D01*
G37*
%TD.AperFunction*%
%TD*%
%TA.AperFunction,Conductor*%
%TO.N,Net-(J1-Pin_2)*%
G36*
X133503113Y-42174647D02*
G01*
X133538027Y-42179757D01*
X133553020Y-42184199D01*
X133567989Y-42193871D01*
X133585069Y-42198930D01*
X133611689Y-42222106D01*
X133612861Y-42223465D01*
X133640197Y-42278433D01*
X133641826Y-42286025D01*
X133644585Y-42312412D01*
X133620425Y-50333541D01*
X133615298Y-50368459D01*
X133610848Y-50383448D01*
X133601157Y-50398427D01*
X133596079Y-50415525D01*
X133572908Y-50442096D01*
X133572898Y-50442113D01*
X133572883Y-50442126D01*
X133571437Y-50443371D01*
X133516717Y-50470605D01*
X133509321Y-50472203D01*
X133483134Y-50475000D01*
X123687349Y-50475000D01*
X123652408Y-50469975D01*
X123637409Y-50465570D01*
X123622419Y-50455940D01*
X123605351Y-50450936D01*
X123578668Y-50427834D01*
X123577545Y-50426539D01*
X123550021Y-50371474D01*
X123548351Y-50363739D01*
X123545560Y-50337205D01*
X123545571Y-50333541D01*
X123569576Y-42291761D01*
X123574704Y-42256844D01*
X123579154Y-42241856D01*
X123588837Y-42226887D01*
X123593911Y-42209797D01*
X123617100Y-42183195D01*
X123618488Y-42182000D01*
X123673385Y-42154719D01*
X123680918Y-42153102D01*
X123707249Y-42150340D01*
X133503113Y-42174647D01*
G37*
%TD.AperFunction*%
%TD*%
%TA.AperFunction,Conductor*%
%TO.N,Net-(J6-Pin_2)*%
G36*
X155406308Y-42199693D02*
G01*
X155473298Y-42219544D01*
X155518922Y-42272462D01*
X155530000Y-42323693D01*
X155530000Y-50376000D01*
X155510315Y-50443039D01*
X155457511Y-50488794D01*
X155406000Y-50500000D01*
X145554372Y-50500000D01*
X145487333Y-50480315D01*
X145441578Y-50427511D01*
X145430373Y-50375628D01*
X145454553Y-42323693D01*
X145454627Y-42298932D01*
X145474512Y-42231955D01*
X145527453Y-42186358D01*
X145578931Y-42175307D01*
X155406308Y-42199693D01*
G37*
%TD.AperFunction*%
%TD*%
%TA.AperFunction,Conductor*%
%TO.N,Net-(J1-Pin_1)*%
G36*
X122573039Y-42194685D02*
G01*
X122618794Y-42247489D01*
X122630000Y-42299000D01*
X122630000Y-50376000D01*
X122610315Y-50443039D01*
X122557511Y-50488794D01*
X122506000Y-50500000D01*
X112729000Y-50500000D01*
X112661961Y-50480315D01*
X112616206Y-50427511D01*
X112605000Y-50376000D01*
X112605000Y-42299000D01*
X112624685Y-42231961D01*
X112677489Y-42186206D01*
X112729000Y-42175000D01*
X122506000Y-42175000D01*
X122573039Y-42194685D01*
G37*
%TD.AperFunction*%
%TD*%
%TA.AperFunction,Conductor*%
%TO.N,Net-(J6-Pin_1)*%
G36*
X144488106Y-42190023D02*
G01*
X144503104Y-42194427D01*
X144518094Y-42204057D01*
X144535175Y-42209067D01*
X144561855Y-42232172D01*
X144563042Y-42233541D01*
X144590518Y-42288402D01*
X144592163Y-42295960D01*
X144595000Y-42322331D01*
X144595000Y-50343170D01*
X144589975Y-50378114D01*
X144585570Y-50393112D01*
X144575939Y-50408101D01*
X144570932Y-50425175D01*
X144547827Y-50451855D01*
X144546458Y-50453042D01*
X144491597Y-50480518D01*
X144484039Y-50482163D01*
X144457668Y-50485000D01*
X134636830Y-50485000D01*
X134601889Y-50479975D01*
X134586890Y-50475570D01*
X134571902Y-50465940D01*
X134554824Y-50460932D01*
X134528144Y-50437827D01*
X134526957Y-50436458D01*
X134499477Y-50381583D01*
X134497832Y-50374021D01*
X134495000Y-50347668D01*
X134495000Y-42326829D01*
X134500023Y-42291893D01*
X134504427Y-42276895D01*
X134514057Y-42261904D01*
X134519067Y-42244824D01*
X134542172Y-42218144D01*
X134543541Y-42216957D01*
X134598420Y-42189477D01*
X134605979Y-42187833D01*
X134632332Y-42185000D01*
X144453170Y-42185000D01*
X144488106Y-42190023D01*
G37*
%TD.AperFunction*%
%TD*%
D19*
X109050000Y-34760254D02*
X159300000Y-34760254D01*
X159300000Y-79800000D01*
X109050000Y-79800000D01*
X109050000Y-34760254D01*
M02*
