%TF.GenerationSoftware,KiCad,Pcbnew,10.0.2*%
%TF.CreationDate,2026-07-08T17:49:44-03:00*%
%TF.ProjectId,driver_bts7960_v1,64726976-6572-45f6-9274-73373936305f,rev?*%
%TF.SameCoordinates,Original*%
%TF.FileFunction,Copper,L1,Top*%
%TF.FilePolarity,Positive*%
%FSLAX46Y46*%
G04 Gerber Fmt 4.6, Leading zero omitted, Abs format (unit mm)*
G04 Created by KiCad (PCBNEW 10.0.2) date 2026-07-08 17:49:44*
%MOMM*%
%LPD*%
G01*
G04 APERTURE LIST*
G04 Aperture macros list*
%AMRoundRect*
0 Rectangle with rounded corners*
0 $1 Rounding radius*
0 $2 $3 $4 $5 $6 $7 $8 $9 X,Y pos of 4 corners*
0 Add a 4 corners polygon primitive as box body*
4,1,4,$2,$3,$4,$5,$6,$7,$8,$9,$2,$3,0*
0 Add four circle primitives for the rounded corners*
1,1,$1+$1,$2,$3*
1,1,$1+$1,$4,$5*
1,1,$1+$1,$6,$7*
1,1,$1+$1,$8,$9*
0 Add four rect primitives between the rounded corners*
20,1,$1+$1,$2,$3,$4,$5,0*
20,1,$1+$1,$4,$5,$6,$7,0*
20,1,$1+$1,$6,$7,$8,$9,0*
20,1,$1+$1,$8,$9,$2,$3,0*%
G04 Aperture macros list end*
%ADD10C,0.500000*%
%ADD11C,0.300000*%
%TA.AperFunction,SMDPad,CuDef*%
%ADD12RoundRect,0.250000X-0.475000X0.337500X-0.475000X-0.337500X0.475000X-0.337500X0.475000X0.337500X0*%
%TD*%
%TA.AperFunction,SMDPad,CuDef*%
%ADD13RoundRect,0.250000X-0.450000X0.350000X-0.450000X-0.350000X0.450000X-0.350000X0.450000X0.350000X0*%
%TD*%
%TA.AperFunction,ComponentPad*%
%ADD14R,1.700000X1.700000*%
%TD*%
%TA.AperFunction,ComponentPad*%
%ADD15C,1.700000*%
%TD*%
%TA.AperFunction,SMDPad,CuDef*%
%ADD16R,0.800000X3.810000*%
%TD*%
%TA.AperFunction,SMDPad,CuDef*%
%ADD17R,10.070000X8.290000*%
%TD*%
%TA.AperFunction,ComponentPad*%
%ADD18RoundRect,0.760000X-1.140000X-1.140000X1.140000X-1.140000X1.140000X1.140000X-1.140000X1.140000X0*%
%TD*%
%TA.AperFunction,ComponentPad*%
%ADD19C,4.000000*%
%TD*%
%TA.AperFunction,SMDPad,CuDef*%
%ADD20R,0.533400X1.803400*%
%TD*%
%TA.AperFunction,ComponentPad*%
%ADD21RoundRect,0.250000X0.550000X0.550000X-0.550000X0.550000X-0.550000X-0.550000X0.550000X-0.550000X0*%
%TD*%
%TA.AperFunction,ComponentPad*%
%ADD22C,1.600000*%
%TD*%
%TA.AperFunction,ViaPad*%
%ADD23C,1.800000*%
%TD*%
%TA.AperFunction,Conductor*%
%ADD24C,0.800000*%
%TD*%
%TA.AperFunction,Conductor*%
%ADD25C,0.500000*%
%TD*%
%TA.AperFunction,Conductor*%
%ADD26C,0.700000*%
%TD*%
%TA.AperFunction,Conductor*%
%ADD27C,0.600000*%
%TD*%
%TA.AperFunction,Conductor*%
%ADD28C,2.000000*%
%TD*%
%TA.AperFunction,Conductor*%
%ADD29C,1.500000*%
%TD*%
%TA.AperFunction,Conductor*%
%ADD30C,3.000000*%
%TD*%
%TA.AperFunction,Profile*%
%ADD31C,0.050000*%
%TD*%
G04 APERTURE END LIST*
D10*
G36*
X112046755Y-70800000D02*
G01*
X111504291Y-70800000D01*
X111363608Y-70385764D01*
X110609386Y-70385764D01*
X110468702Y-70800000D01*
X109940038Y-70800000D01*
X110229043Y-70018422D01*
X110736514Y-70018422D01*
X111236479Y-70018422D01*
X110986497Y-69288625D01*
X110736514Y-70018422D01*
X110229043Y-70018422D01*
X110691451Y-68767899D01*
X111295342Y-68767899D01*
X112046755Y-70800000D01*
G37*
G36*
X112804030Y-70800000D02*
G01*
X112312247Y-70800000D01*
X112312247Y-69268108D01*
X112804030Y-69268108D01*
X112804030Y-70800000D01*
G37*
G36*
X112817707Y-69049267D02*
G01*
X112298569Y-69049267D01*
X112298569Y-68674110D01*
X112817707Y-68674110D01*
X112817707Y-69049267D01*
G37*
G36*
X114759682Y-70800000D02*
G01*
X114267777Y-70800000D01*
X114267777Y-70640143D01*
X114140208Y-70733883D01*
X114030007Y-70795481D01*
X113913554Y-70833483D01*
X113774529Y-70846894D01*
X113639329Y-70832871D01*
X113521883Y-70792404D01*
X113418384Y-70725709D01*
X113326465Y-70630129D01*
X113256103Y-70518608D01*
X113203690Y-70386681D01*
X113170311Y-70230560D01*
X113158426Y-70045655D01*
X113158717Y-70040038D01*
X113665230Y-70040038D01*
X113675788Y-70190255D01*
X113703230Y-70296310D01*
X113743021Y-70369277D01*
X113802263Y-70424180D01*
X113883186Y-70458938D01*
X113993126Y-70471737D01*
X114060581Y-70465655D01*
X114135153Y-70446336D01*
X114206885Y-70416419D01*
X114267777Y-70379658D01*
X114267777Y-69622016D01*
X114158478Y-69590387D01*
X114053210Y-69580739D01*
X113957519Y-69589234D01*
X113879252Y-69612987D01*
X113814947Y-69650626D01*
X113762194Y-69702494D01*
X113710618Y-69788729D01*
X113677365Y-69899072D01*
X113665230Y-70040038D01*
X113158717Y-70040038D01*
X113165153Y-69915798D01*
X113184401Y-69800512D01*
X113215091Y-69697976D01*
X113283227Y-69555518D01*
X113370185Y-69437979D01*
X113472476Y-69346921D01*
X113595621Y-69278122D01*
X113729495Y-69235148D01*
X113860624Y-69221214D01*
X113992038Y-69229365D01*
X114086671Y-69250645D01*
X114267777Y-69325017D01*
X114267777Y-68674110D01*
X114759682Y-68674110D01*
X114759682Y-70800000D01*
G37*
G36*
X116173186Y-69234933D02*
G01*
X116325489Y-69272882D01*
X116448712Y-69331789D01*
X116548028Y-69410624D01*
X116627249Y-69510428D01*
X116685843Y-69631395D01*
X116723198Y-69777880D01*
X116736584Y-69955530D01*
X116736584Y-70127843D01*
X115610869Y-70127843D01*
X115631981Y-70242889D01*
X115677701Y-70334037D01*
X115748133Y-70406524D01*
X115837712Y-70456955D01*
X115958759Y-70490474D01*
X116120481Y-70503000D01*
X116273659Y-70488740D01*
X116422365Y-70445847D01*
X116559000Y-70383506D01*
X116653297Y-70323237D01*
X116707885Y-70323237D01*
X116707885Y-70719399D01*
X116542353Y-70778436D01*
X116393667Y-70816730D01*
X116241927Y-70839011D01*
X116067114Y-70846894D01*
X115876805Y-70837093D01*
X115714547Y-70809552D01*
X115576417Y-70766521D01*
X115458985Y-70709450D01*
X115359421Y-70638921D01*
X115272629Y-70550772D01*
X115204974Y-70449677D01*
X115155483Y-70333796D01*
X115124484Y-70200472D01*
X115113590Y-70046388D01*
X115123816Y-69893901D01*
X115135879Y-69838660D01*
X115609525Y-69838660D01*
X116247488Y-69838660D01*
X116235822Y-69737390D01*
X116209564Y-69661261D01*
X116170917Y-69604553D01*
X116117504Y-69562953D01*
X116044528Y-69536027D01*
X115945603Y-69526029D01*
X115853447Y-69534900D01*
X115776568Y-69559994D01*
X115711863Y-69600401D01*
X115662104Y-69656341D01*
X115627403Y-69733571D01*
X115609525Y-69838660D01*
X115135879Y-69838660D01*
X115153076Y-69759904D01*
X115199990Y-69641606D01*
X115264217Y-69536725D01*
X115346476Y-69443597D01*
X115442771Y-69366093D01*
X115552557Y-69304837D01*
X115677788Y-69259625D01*
X115820992Y-69231199D01*
X115985171Y-69221214D01*
X116173186Y-69234933D01*
G37*
G36*
X118624825Y-70800000D02*
G01*
X118130356Y-70800000D01*
X118130356Y-70038328D01*
X118120708Y-69852948D01*
X118106380Y-69767208D01*
X118087980Y-69716905D01*
X118054308Y-69673188D01*
X118007990Y-69643143D01*
X117949820Y-69626442D01*
X117861200Y-69619818D01*
X117794300Y-69625182D01*
X117725157Y-69641678D01*
X117655806Y-69668859D01*
X117575558Y-69711409D01*
X117575558Y-70800000D01*
X117083775Y-70800000D01*
X117083775Y-69268108D01*
X117575558Y-69268108D01*
X117575558Y-69433217D01*
X117707888Y-69340280D01*
X117827617Y-69275924D01*
X117953425Y-69235250D01*
X118096040Y-69221214D01*
X118219287Y-69231236D01*
X118322928Y-69259508D01*
X118410532Y-69304498D01*
X118484752Y-69366294D01*
X118542791Y-69442262D01*
X118586399Y-69536960D01*
X118614605Y-69654470D01*
X118624825Y-69799947D01*
X118624825Y-70800000D01*
G37*
G36*
X117487142Y-74160000D02*
G01*
X116965317Y-74160000D01*
X116965317Y-72799689D01*
X116588206Y-73683237D01*
X116226238Y-73683237D01*
X115849127Y-72799689D01*
X115849127Y-74160000D01*
X115354536Y-74160000D01*
X115354536Y-72127899D01*
X115963799Y-72127899D01*
X116421511Y-73147979D01*
X116877878Y-72127899D01*
X117487142Y-72127899D01*
X117487142Y-74160000D01*
G37*
G36*
X119057678Y-72137050D02*
G01*
X119198552Y-72161360D01*
X119325782Y-72203753D01*
X119434246Y-72261378D01*
X119510385Y-72320521D01*
X119572609Y-72388849D01*
X119622069Y-72467152D01*
X119657149Y-72552998D01*
X119679242Y-72652489D01*
X119687037Y-72768182D01*
X119675118Y-72902643D01*
X119639166Y-73034528D01*
X119580319Y-73155548D01*
X119502634Y-73253126D01*
X119417541Y-73327248D01*
X119327322Y-73387377D01*
X119231402Y-73434354D01*
X119129803Y-73466919D01*
X119007009Y-73488046D01*
X118859176Y-73495659D01*
X118532624Y-73495659D01*
X118532624Y-74160000D01*
X118007990Y-74160000D01*
X118007990Y-73112686D01*
X118532624Y-73112686D01*
X118682955Y-73112686D01*
X118810953Y-73108208D01*
X118903506Y-73096566D01*
X118984647Y-73071635D01*
X119049075Y-73031720D01*
X119092782Y-72984064D01*
X119122104Y-72928527D01*
X119138603Y-72864697D01*
X119144696Y-72782103D01*
X119132775Y-72702095D01*
X119098168Y-72635680D01*
X119046971Y-72582715D01*
X118990335Y-72549951D01*
X118908195Y-72524588D01*
X118830478Y-72514291D01*
X118622749Y-72510872D01*
X118532624Y-72510872D01*
X118532624Y-73112686D01*
X118007990Y-73112686D01*
X118007990Y-72127899D01*
X118871388Y-72127899D01*
X119057678Y-72137050D01*
G37*
D11*
G36*
X142515095Y-69860000D02*
G01*
X140917991Y-69860000D01*
X140917991Y-69522456D01*
X141284721Y-69242676D01*
X141457924Y-69098140D01*
X141579156Y-68987320D01*
X141728397Y-68829331D01*
X141814118Y-68710348D01*
X141853831Y-68629377D01*
X141876504Y-68551936D01*
X141883849Y-68476730D01*
X141873154Y-68388466D01*
X141843163Y-68318590D01*
X141794334Y-68262773D01*
X141730413Y-68222900D01*
X141646476Y-68196975D01*
X141536780Y-68187424D01*
X141410521Y-68199588D01*
X141272387Y-68238105D01*
X141138180Y-68295928D01*
X141014955Y-68367187D01*
X140971236Y-68367187D01*
X140971236Y-67915704D01*
X141080446Y-67876681D01*
X141257366Y-67831196D01*
X141447289Y-67799360D01*
X141636553Y-67788820D01*
X141830884Y-67800628D01*
X141988894Y-67833194D01*
X142116839Y-67883250D01*
X142219927Y-67949043D01*
X142306835Y-68036142D01*
X142368827Y-68138419D01*
X142407267Y-68258899D01*
X142420817Y-68402114D01*
X142410170Y-68527732D01*
X142378310Y-68648943D01*
X142324463Y-68767379D01*
X142253537Y-68877666D01*
X142156823Y-68996318D01*
X142030029Y-69124462D01*
X141904304Y-69235184D01*
X141779924Y-69335000D01*
X141601016Y-69469211D01*
X142515095Y-69469211D01*
X142515095Y-69860000D01*
G37*
G36*
X143803853Y-67797306D02*
G01*
X143933211Y-67820942D01*
X144041002Y-67857575D01*
X144140812Y-67911236D01*
X144226890Y-67979251D01*
X144300632Y-68062494D01*
X144359464Y-68155276D01*
X144407960Y-68264073D01*
X144445468Y-68391245D01*
X144478530Y-68594549D01*
X144490531Y-68842606D01*
X144478253Y-69091400D01*
X144444003Y-69300806D01*
X144405449Y-69432576D01*
X144356904Y-69541997D01*
X144299289Y-69632243D01*
X144225771Y-69712825D01*
X144139715Y-69779064D01*
X144039659Y-69831667D01*
X143931875Y-69867603D01*
X143802918Y-69890770D01*
X143648992Y-69899078D01*
X143497821Y-69890791D01*
X143369095Y-69867502D01*
X143259547Y-69831057D01*
X143157905Y-69777741D01*
X143071464Y-69710797D01*
X142998574Y-69629556D01*
X142939082Y-69536555D01*
X142890121Y-69426879D01*
X142852394Y-69297997D01*
X142819291Y-69092320D01*
X142807396Y-68845293D01*
X143336117Y-68845293D01*
X143346553Y-69087921D01*
X143373120Y-69254830D01*
X143409878Y-69364797D01*
X143454126Y-69436422D01*
X143507534Y-69484800D01*
X143571381Y-69513791D01*
X143648992Y-69523921D01*
X143726539Y-69513794D01*
X143790347Y-69484808D01*
X143843737Y-69436431D01*
X143887984Y-69364797D01*
X143924699Y-69254782D01*
X143951287Y-69087109D01*
X143961745Y-68842606D01*
X143951380Y-68595023D01*
X143925189Y-68427568D01*
X143889327Y-68319682D01*
X143845886Y-68250040D01*
X143792654Y-68202658D01*
X143728192Y-68174039D01*
X143648992Y-68163977D01*
X143569727Y-68174042D01*
X143505226Y-68202666D01*
X143451977Y-68250049D01*
X143408535Y-68319682D01*
X143372714Y-68427619D01*
X143346504Y-68595834D01*
X143336117Y-68845293D01*
X142807396Y-68845293D01*
X142807331Y-68843949D01*
X142819800Y-68588782D01*
X142853738Y-68385139D01*
X142892132Y-68258496D01*
X142941538Y-68149396D01*
X143001382Y-68055655D01*
X143075124Y-67974477D01*
X143162029Y-67908036D01*
X143263699Y-67855621D01*
X143373162Y-67819745D01*
X143500605Y-67796914D01*
X143648992Y-67788820D01*
X143803853Y-67797306D01*
G37*
G36*
X146493322Y-69860000D02*
G01*
X144896218Y-69860000D01*
X144896218Y-69522456D01*
X145262949Y-69242676D01*
X145436151Y-69098140D01*
X145557384Y-68987320D01*
X145706625Y-68829331D01*
X145792345Y-68710348D01*
X145832058Y-68629377D01*
X145854732Y-68551936D01*
X145862077Y-68476730D01*
X145851381Y-68388466D01*
X145821391Y-68318590D01*
X145772562Y-68262773D01*
X145708641Y-68222900D01*
X145624703Y-68196975D01*
X145515008Y-68187424D01*
X145388748Y-68199588D01*
X145250615Y-68238105D01*
X145116408Y-68295928D01*
X144993183Y-68367187D01*
X144949463Y-68367187D01*
X144949463Y-67915704D01*
X145058674Y-67876681D01*
X145235594Y-67831196D01*
X145425516Y-67799360D01*
X145614781Y-67788820D01*
X145809111Y-67800628D01*
X145967122Y-67833194D01*
X146095066Y-67883250D01*
X146198155Y-67949043D01*
X146285062Y-68036142D01*
X146347054Y-68138419D01*
X146385494Y-68258899D01*
X146399045Y-68402114D01*
X146388398Y-68527732D01*
X146356538Y-68648943D01*
X146302691Y-68767379D01*
X146231765Y-68877666D01*
X146135050Y-68996318D01*
X146008256Y-69124462D01*
X145882532Y-69235184D01*
X145758151Y-69335000D01*
X145579243Y-69469211D01*
X146493322Y-69469211D01*
X146493322Y-69860000D01*
G37*
G36*
X148153075Y-67802620D02*
G01*
X148307558Y-67823258D01*
X148307558Y-68226503D01*
X148255657Y-68226503D01*
X148130604Y-68186448D01*
X148039261Y-68169905D01*
X147930447Y-68163977D01*
X147798775Y-68173074D01*
X147689191Y-68198501D01*
X147597925Y-68238323D01*
X147521951Y-68291838D01*
X147457562Y-68360124D01*
X147406757Y-68440832D01*
X147369233Y-68535893D01*
X147345730Y-68647944D01*
X147453723Y-68591410D01*
X147567747Y-68546706D01*
X147687760Y-68517802D01*
X147819805Y-68507871D01*
X147936116Y-68514887D01*
X148040479Y-68535104D01*
X148138665Y-68570370D01*
X148229767Y-68622055D01*
X148299577Y-68679976D01*
X148359979Y-68750256D01*
X148411361Y-68834302D01*
X148447899Y-68925645D01*
X148471344Y-69035471D01*
X148479749Y-69167449D01*
X148465227Y-69320006D01*
X148422352Y-69461273D01*
X148378359Y-69548915D01*
X148324710Y-69625567D01*
X148261152Y-69692327D01*
X148142329Y-69780748D01*
X148004941Y-69846078D01*
X147906586Y-69874605D01*
X147793689Y-69892697D01*
X147664100Y-69899078D01*
X147486116Y-69886213D01*
X147329976Y-69849375D01*
X147232974Y-69809769D01*
X147147079Y-69759138D01*
X147071079Y-69697334D01*
X146996206Y-69613576D01*
X146932869Y-69513475D01*
X146881180Y-69394717D01*
X146846090Y-69269445D01*
X146823602Y-69122855D01*
X146819237Y-69029452D01*
X147340234Y-69029452D01*
X147349488Y-69187759D01*
X147373696Y-69302637D01*
X147414823Y-69400836D01*
X147463211Y-69466402D01*
X147504977Y-69502786D01*
X147553336Y-69527829D01*
X147606752Y-69542385D01*
X147665444Y-69547369D01*
X147711247Y-69542658D01*
X147765095Y-69527219D01*
X147815945Y-69501707D01*
X147858029Y-69466402D01*
X147895803Y-69416919D01*
X147925684Y-69357958D01*
X147943836Y-69289142D01*
X147950964Y-69187233D01*
X147943103Y-69094007D01*
X147922265Y-69026154D01*
X147887661Y-68969086D01*
X147843008Y-68925648D01*
X147790066Y-68894119D01*
X147726871Y-68873747D01*
X147588874Y-68859581D01*
X147463211Y-68873136D01*
X147342921Y-68906842D01*
X147341578Y-68951294D01*
X147340234Y-69029452D01*
X146819237Y-69029452D01*
X146815601Y-68951660D01*
X146822943Y-68774069D01*
X146843880Y-68616670D01*
X146877028Y-68477219D01*
X146926995Y-68343729D01*
X146993795Y-68221924D01*
X147077918Y-68110488D01*
X147174062Y-68017894D01*
X147289111Y-67938859D01*
X147425597Y-67873328D01*
X147570568Y-67827947D01*
X147738987Y-67799057D01*
X147934599Y-67788820D01*
X148153075Y-67802620D01*
G37*
D12*
%TO.P,C4,2*%
%TO.N,GND*%
X156210000Y-60117900D03*
%TO.P,C4,1*%
%TO.N,+24V*%
X156210000Y-58042900D03*
%TD*%
D13*
%TO.P,R5,1*%
%TO.N,Net-(U2-INH)*%
X128500000Y-59100000D03*
%TO.P,R5,2*%
%TO.N,OUT_EN_1*%
X128500000Y-61100000D03*
%TD*%
D14*
%TO.P,J3,1,Pin_1_1*%
%TO.N,PWM_D*%
X137075000Y-77850000D03*
D15*
%TO.P,J3,2,Pin_2_2*%
%TO.N,PWM_C*%
X134535000Y-77850000D03*
%TO.P,J3,3,Pin_3_3*%
%TO.N,PWM_B*%
X131995000Y-77850000D03*
%TO.P,J3,4,Pin_4_4*%
%TO.N,PWM_A*%
X129455000Y-77850000D03*
%TO.P,J3,5,Pin_5_5*%
%TO.N,ENABLE_2*%
X126915000Y-77850000D03*
%TO.P,J3,6,Pin_6_6*%
%TO.N,ENABLE_1*%
X124375000Y-77850000D03*
%TO.P,J3,7,Pin_7_7*%
%TO.N,+5V*%
X121835000Y-77850000D03*
%TO.P,J3,8,Pin_8_8*%
%TO.N,GND*%
X119295000Y-77850000D03*
%TD*%
D13*
%TO.P,R13,1*%
%TO.N,Net-(U1-SR)*%
X118483333Y-59100000D03*
%TO.P,R13,2*%
%TO.N,GND*%
X118483333Y-61100000D03*
%TD*%
%TO.P,R7,1*%
%TO.N,Net-(U3-INH)*%
X138916667Y-59100000D03*
%TO.P,R7,2*%
%TO.N,OUT_EN_2*%
X138916667Y-61100000D03*
%TD*%
%TO.P,R14,1*%
%TO.N,Net-(U2-SR)*%
X130500000Y-59100000D03*
%TO.P,R14,2*%
%TO.N,GND*%
X130500000Y-61100000D03*
%TD*%
D16*
%TO.P,U1,1,GND_1*%
%TO.N,GND*%
X113780000Y-55960000D03*
%TO.P,U1,2,IN_2*%
%TO.N,Net-(U1-IN)*%
X115050000Y-55960000D03*
%TO.P,U1,3,INH_3*%
%TO.N,Net-(U1-INH)*%
X116320000Y-55960000D03*
%TO.P,U1,4,OUT_4*%
%TO.N,Net-(J1-Pin_1)*%
X117590000Y-55960000D03*
%TO.P,U1,5,SR_5*%
%TO.N,Net-(U1-SR)*%
X118860000Y-55960000D03*
%TO.P,U1,6,IS_6*%
%TO.N,Net-(U1-IS)*%
X120130000Y-55960000D03*
%TO.P,U1,7,VS_7*%
%TO.N,+24V*%
X121400000Y-55960000D03*
D17*
%TO.P,U1,8,OUT_8*%
%TO.N,Net-(J1-Pin_1)*%
X117590000Y-46300000D03*
%TD*%
D13*
%TO.P,R9,1*%
%TO.N,Net-(U4-INH)*%
X149900000Y-59100000D03*
%TO.P,R9,2*%
%TO.N,OUT_EN_2*%
X149900000Y-61100000D03*
%TD*%
%TO.P,R10,1*%
%TO.N,Net-(U3-IS)*%
X142900000Y-59100000D03*
%TO.P,R10,2*%
%TO.N,GND*%
X142900000Y-61100000D03*
%TD*%
%TO.P,R6,1*%
%TO.N,Net-(U3-IN)*%
X136950000Y-59100000D03*
%TO.P,R6,2*%
%TO.N,OUT_C*%
X136950000Y-61100000D03*
%TD*%
%TO.P,R8,1*%
%TO.N,Net-(U4-IN)*%
X147900000Y-59100000D03*
%TO.P,R8,2*%
%TO.N,OUT_D*%
X147900000Y-61100000D03*
%TD*%
D16*
%TO.P,U3,1,GND_1*%
%TO.N,GND*%
X135720000Y-55960000D03*
%TO.P,U3,2,IN_2*%
%TO.N,Net-(U3-IN)*%
X136990000Y-55960000D03*
%TO.P,U3,3,INH_3*%
%TO.N,Net-(U3-INH)*%
X138260000Y-55960000D03*
%TO.P,U3,4,OUT_4*%
%TO.N,Net-(J6-Pin_1)*%
X139530000Y-55960000D03*
%TO.P,U3,5,SR_5*%
%TO.N,Net-(U3-SR)*%
X140800000Y-55960000D03*
%TO.P,U3,6,IS_6*%
%TO.N,Net-(U3-IS)*%
X142070000Y-55960000D03*
%TO.P,U3,7,VS_7*%
%TO.N,+24V*%
X143340000Y-55960000D03*
D17*
%TO.P,U3,8,OUT_8*%
%TO.N,Net-(J6-Pin_1)*%
X139530000Y-46300000D03*
%TD*%
D16*
%TO.P,U4,1,GND_1*%
%TO.N,GND*%
X146690000Y-55960000D03*
%TO.P,U4,2,IN_2*%
%TO.N,Net-(U4-IN)*%
X147960000Y-55960000D03*
%TO.P,U4,3,INH_3*%
%TO.N,Net-(U4-INH)*%
X149230000Y-55960000D03*
%TO.P,U4,4,OUT_4*%
%TO.N,Net-(J6-Pin_2)*%
X150500000Y-55960000D03*
%TO.P,U4,5,SR_5*%
%TO.N,Net-(U4-SR)*%
X151770000Y-55960000D03*
%TO.P,U4,6,IS_6*%
%TO.N,Net-(U3-IS)*%
X153040000Y-55960000D03*
%TO.P,U4,7,VS_7*%
%TO.N,+24V*%
X154310000Y-55960000D03*
D17*
%TO.P,U4,8,OUT_8*%
%TO.N,Net-(J6-Pin_2)*%
X150500000Y-46300000D03*
%TD*%
D16*
%TO.P,U2,1,GND_1*%
%TO.N,GND*%
X124780000Y-55960000D03*
%TO.P,U2,2,IN_2*%
%TO.N,Net-(U2-IN)*%
X126050000Y-55960000D03*
%TO.P,U2,3,INH_3*%
%TO.N,Net-(U2-INH)*%
X127320000Y-55960000D03*
%TO.P,U2,4,OUT_4*%
%TO.N,Net-(J1-Pin_2)*%
X128590000Y-55960000D03*
%TO.P,U2,5,SR_5*%
%TO.N,Net-(U2-SR)*%
X129860000Y-55960000D03*
%TO.P,U2,6,IS_6*%
%TO.N,Net-(U1-IS)*%
X131130000Y-55960000D03*
%TO.P,U2,7,VS_7*%
%TO.N,+24V*%
X132400000Y-55960000D03*
D17*
%TO.P,U2,8,OUT_8*%
%TO.N,Net-(J1-Pin_2)*%
X128590000Y-46300000D03*
%TD*%
D13*
%TO.P,R2,1*%
%TO.N,Net-(U2-IN)*%
X126500000Y-59100000D03*
%TO.P,R2,2*%
%TO.N,OUT_B*%
X126500000Y-61100000D03*
%TD*%
%TO.P,R3,1*%
%TO.N,Net-(U1-IN)*%
X114550000Y-59100000D03*
%TO.P,R3,2*%
%TO.N,OUT_A*%
X114550000Y-61100000D03*
%TD*%
D18*
%TO.P,J2,1,Pin_1_1*%
%TO.N,GND*%
X143600000Y-76520000D03*
D19*
%TO.P,J2,2,Pin_2_2*%
%TO.N,+24V*%
X148600000Y-76520000D03*
%TD*%
D12*
%TO.P,C3,1*%
%TO.N,+24V*%
X145000000Y-58062500D03*
%TO.P,C3,2*%
%TO.N,GND*%
X145000000Y-60137500D03*
%TD*%
D20*
%TO.P,U5,1,1OE_1*%
%TO.N,GND*%
X128165000Y-75415200D03*
%TO.P,U5,2,1A0_2*%
%TO.N,PWM_A*%
X129435000Y-75415200D03*
%TO.P,U5,3,2Y0_3*%
%TO.N,OUT_EN_1*%
X130705000Y-75415200D03*
%TO.P,U5,4,1A1_4*%
%TO.N,PWM_B*%
X131975000Y-75415200D03*
%TO.P,U5,5,2Y1_5*%
%TO.N,OUT_EN_2*%
X133245000Y-75415200D03*
%TO.P,U5,6,1A2_6*%
%TO.N,PWM_C*%
X134515000Y-75415200D03*
%TO.P,U5,7,2Y2_7*%
%TO.N,GND*%
X135785000Y-75415200D03*
%TO.P,U5,8,1A3_8*%
%TO.N,PWM_D*%
X137055000Y-75415200D03*
%TO.P,U5,9,2Y3_9*%
%TO.N,GND*%
X138325000Y-75415200D03*
%TO.P,U5,10,GND_10*%
X139595000Y-75415200D03*
%TO.P,U5,11,2A3_11*%
X139595000Y-65864800D03*
%TO.P,U5,12,1Y3_12*%
%TO.N,OUT_D*%
X138325000Y-65864800D03*
%TO.P,U5,13,2A2_13*%
%TO.N,GND*%
X137055000Y-65864800D03*
%TO.P,U5,14,1Y2_14*%
%TO.N,OUT_C*%
X135785000Y-65864800D03*
%TO.P,U5,15,2A1_15*%
%TO.N,ENABLE_2*%
X134515000Y-65864800D03*
%TO.P,U5,16,1Y1_16*%
%TO.N,OUT_B*%
X133245000Y-65864800D03*
%TO.P,U5,17,2A0_17*%
%TO.N,ENABLE_1*%
X131975000Y-65864800D03*
%TO.P,U5,18,1Y0_18*%
%TO.N,OUT_A*%
X130705000Y-65864800D03*
%TO.P,U5,19,2OE_19*%
%TO.N,GND*%
X129435000Y-65864800D03*
%TO.P,U5,20,VCC_20*%
%TO.N,+5V*%
X128165000Y-65864800D03*
%TD*%
D12*
%TO.P,C2,1*%
%TO.N,+24V*%
X134050000Y-58062500D03*
%TO.P,C2,2*%
%TO.N,GND*%
X134050000Y-60137500D03*
%TD*%
D13*
%TO.P,R4,1*%
%TO.N,Net-(U1-INH)*%
X116516667Y-59100000D03*
%TO.P,R4,2*%
%TO.N,OUT_EN_1*%
X116516667Y-61100000D03*
%TD*%
D21*
%TO.P,C5,1*%
%TO.N,+24V*%
X156800000Y-65800000D03*
D22*
%TO.P,C5,2*%
%TO.N,GND*%
X153000000Y-65800000D03*
%TD*%
D13*
%TO.P,R11,1*%
%TO.N,Net-(U4-SR)*%
X151900000Y-59100000D03*
%TO.P,R11,2*%
%TO.N,GND*%
X151900000Y-61100000D03*
%TD*%
D12*
%TO.P,C1,1*%
%TO.N,+24V*%
X123100000Y-58062500D03*
%TO.P,C1,2*%
%TO.N,GND*%
X123100000Y-60137500D03*
%TD*%
D13*
%TO.P,R12,1*%
%TO.N,Net-(U3-SR)*%
X140900000Y-59100000D03*
%TO.P,R12,2*%
%TO.N,GND*%
X140900000Y-61100000D03*
%TD*%
%TO.P,R1,1*%
%TO.N,Net-(U1-IS)*%
X120450000Y-59100000D03*
%TO.P,R1,2*%
%TO.N,GND*%
X120450000Y-61100000D03*
%TD*%
D18*
%TO.P,J1,1,Pin_1_1*%
%TO.N,Net-(J1-Pin_1)*%
X123590000Y-38000000D03*
D19*
%TO.P,J1,2,Pin_2_2*%
%TO.N,Net-(J1-Pin_2)*%
X128590000Y-38000000D03*
%TD*%
D18*
%TO.P,J6,1,Pin_1_1*%
%TO.N,Net-(J6-Pin_1)*%
X139530000Y-38000000D03*
D19*
%TO.P,J6,2,Pin_2_2*%
%TO.N,Net-(J6-Pin_2)*%
X144530000Y-38000000D03*
%TD*%
D23*
%TO.N,GND*%
X135191429Y-60084676D03*
X123952000Y-73126800D03*
%TO.N,OUT_EN_1*%
X116516667Y-62737500D03*
X135261531Y-62749981D03*
X125850000Y-71600000D03*
%TO.N,+5V*%
X121850000Y-66150000D03*
%TO.N,GND*%
X112250000Y-55960000D03*
X153034304Y-60732259D03*
X124300000Y-60137500D03*
X143660000Y-65860000D03*
X143600000Y-72600000D03*
X146000000Y-61181840D03*
%TO.N,OUT_EN_2*%
X138916667Y-62733333D03*
X149900000Y-62750000D03*
%TO.N,+24V*%
X145000000Y-55950000D03*
X156050000Y-55950000D03*
X134050000Y-55950000D03*
%TO.N,Net-(J1-Pin_1)*%
X114662500Y-43600000D03*
X120537500Y-49275000D03*
X117600000Y-49275000D03*
X114662500Y-49275000D03*
X114662500Y-46300000D03*
X120537500Y-46300000D03*
X117600000Y-46300000D03*
X117600000Y-43600000D03*
X120537500Y-43600000D03*
%TO.N,Net-(J6-Pin_1)*%
X142487500Y-43600000D03*
X139550000Y-49275000D03*
X139550000Y-43600000D03*
X139550000Y-46300000D03*
X136612500Y-49275000D03*
X136612500Y-43600000D03*
X142487500Y-46300000D03*
X136612500Y-46300000D03*
X142487500Y-49275000D03*
%TO.N,Net-(J6-Pin_2)*%
X147587500Y-43600000D03*
X147587500Y-46300000D03*
X147587500Y-49275000D03*
X150525000Y-49275000D03*
X150525000Y-46300000D03*
X153462500Y-49275000D03*
X153462500Y-46300000D03*
X150525000Y-43600000D03*
X153462500Y-43600000D03*
%TO.N,Net-(J1-Pin_2)*%
X128600000Y-43600000D03*
X125662500Y-46300000D03*
X131670000Y-46300000D03*
X131670000Y-49275000D03*
X128615000Y-49275000D03*
X131537500Y-43600000D03*
X125662500Y-43600000D03*
X128615000Y-46300000D03*
X125662500Y-49275000D03*
%TO.N,+24V*%
X123100000Y-56050000D03*
%TD*%
%TO.N,Net-(U2-IN)*%
D24*
X126050000Y-58650000D02*
X126050000Y-55960000D01*
X126500000Y-59100000D02*
X126050000Y-58650000D01*
%TO.N,OUT_D*%
D25*
X138488100Y-64300000D02*
X147900000Y-64300000D01*
X138325000Y-64463100D02*
X138488100Y-64300000D01*
X138325000Y-65864800D02*
X138325000Y-64463100D01*
%TO.N,OUT_EN_2*%
D24*
X149900000Y-70967600D02*
X149900000Y-62750000D01*
X135108035Y-70967600D02*
X149900000Y-70967600D01*
X133250000Y-72825635D02*
X135108035Y-70967600D01*
X133250000Y-75410200D02*
X133250000Y-72825635D01*
%TO.N,OUT_C*%
D26*
X136950000Y-63398400D02*
X136950000Y-61100000D01*
X136205200Y-64150000D02*
X136205200Y-64143200D01*
X135800000Y-64555200D02*
X136205200Y-64150000D01*
X136205200Y-64143200D02*
X136950000Y-63398400D01*
X135800000Y-65849800D02*
X135800000Y-64555200D01*
%TO.N,GND*%
D27*
X129397800Y-64312800D02*
X124337200Y-64312800D01*
X129435000Y-64350000D02*
X129397800Y-64312800D01*
%TO.N,+5V*%
D24*
X122135200Y-65864800D02*
X128165000Y-65864800D01*
X121850000Y-66150000D02*
X122135200Y-65864800D01*
%TO.N,GND*%
X128180000Y-73100000D02*
X128180000Y-75400200D01*
X126612742Y-73100000D02*
X128180000Y-73100000D01*
X126512742Y-73200000D02*
X126612742Y-73100000D01*
X125114058Y-73126800D02*
X125187258Y-73200000D01*
X125187258Y-73200000D02*
X126512742Y-73200000D01*
X123952000Y-73126800D02*
X125114058Y-73126800D01*
%TO.N,ENABLE_2*%
X126880000Y-77740000D02*
X126900000Y-77760000D01*
X122100000Y-74726800D02*
X126880000Y-74726800D01*
X122100000Y-70000000D02*
X122100000Y-74726800D01*
X126880000Y-74726800D02*
X126880000Y-77740000D01*
X134520000Y-65869800D02*
X134520000Y-70000000D01*
X134520000Y-70000000D02*
X122100000Y-70000000D01*
%TO.N,ENABLE_1*%
X124375000Y-76165800D02*
X124375000Y-77775000D01*
X124306400Y-76098400D02*
X124307600Y-76098400D01*
X120700000Y-75946000D02*
X124154000Y-75946000D01*
X131980000Y-68900000D02*
X120700000Y-68900000D01*
X124307600Y-76098400D02*
X124375000Y-76165800D01*
X131980000Y-65869800D02*
X131980000Y-68900000D01*
X120700000Y-68900000D02*
X120700000Y-75946000D01*
X124154000Y-75946000D02*
X124306400Y-76098400D01*
%TO.N,OUT_EN_2*%
X138916667Y-62733333D02*
X138916667Y-61100000D01*
%TO.N,GND*%
X153629063Y-60137500D02*
X153034304Y-60732259D01*
X156190400Y-60137500D02*
X153629063Y-60137500D01*
X156210000Y-60117900D02*
X156190400Y-60137500D01*
X152666563Y-61100000D02*
X151900000Y-61100000D01*
X153034304Y-60732259D02*
X152666563Y-61100000D01*
%TO.N,+24V*%
D28*
X156210000Y-58042900D02*
X156050000Y-57882900D01*
X156050000Y-57882900D02*
X156050000Y-55950000D01*
%TO.N,GND*%
D24*
X146450000Y-60731840D02*
X146000000Y-61181840D01*
X146450000Y-58399570D02*
X146450000Y-60731840D01*
X146690000Y-55960000D02*
X146690000Y-58159570D01*
X146690000Y-58159570D02*
X146450000Y-58399570D01*
X145000000Y-60181840D02*
X146000000Y-61181840D01*
X145000000Y-60137500D02*
X145000000Y-60181840D01*
%TO.N,Net-(U3-INH)*%
X138916667Y-58916237D02*
X138916667Y-59100000D01*
X138260000Y-58259570D02*
X138916667Y-58916237D01*
X138260000Y-55960000D02*
X138260000Y-58259570D01*
%TO.N,Net-(U3-IS)*%
X142900000Y-58949570D02*
X142900000Y-59100000D01*
X142070000Y-58119570D02*
X142900000Y-58949570D01*
X142070000Y-55960000D02*
X142070000Y-58119570D01*
%TO.N,Net-(U4-INH)*%
X149900000Y-58949570D02*
X149900000Y-59100000D01*
X149230000Y-58279570D02*
X149900000Y-58949570D01*
X149230000Y-55960000D02*
X149230000Y-58279570D01*
%TO.N,+24V*%
D29*
X143520000Y-55950000D02*
X143520000Y-55960000D01*
X145000000Y-55950000D02*
X143520000Y-55950000D01*
D28*
X154971600Y-55950000D02*
X154940000Y-55981600D01*
X156050000Y-55950000D02*
X154971600Y-55950000D01*
D29*
X123100000Y-56050000D02*
X121902400Y-56050000D01*
X123100000Y-58062500D02*
X123100000Y-56050000D01*
%TO.N,Net-(U2-INH)*%
D27*
X127320000Y-57895000D02*
X127320000Y-55960000D01*
X128500000Y-59075000D02*
X127320000Y-57895000D01*
D24*
X128500000Y-59100000D02*
X128500000Y-59075000D01*
%TO.N,OUT_EN_1*%
X116516667Y-62737500D02*
X116516667Y-61100000D01*
D26*
X128550000Y-62350000D02*
X128500000Y-62300000D01*
D24*
X130750000Y-71600000D02*
X130750000Y-75400200D01*
D26*
X128500000Y-62300000D02*
X128500000Y-61100000D01*
X134861550Y-62350000D02*
X128550000Y-62350000D01*
D24*
X135261531Y-62749981D02*
X134861550Y-62350000D01*
X125850000Y-71600000D02*
X130750000Y-71600000D01*
%TO.N,PWM_D*%
X137075000Y-75435200D02*
X137075000Y-77850000D01*
%TO.N,PWM_C*%
X134535000Y-75435200D02*
X134535000Y-77850000D01*
%TO.N,PWM_B*%
X132000000Y-75430200D02*
X132000000Y-77780000D01*
%TO.N,PWM_A*%
X129455000Y-75435200D02*
X129455000Y-77850000D01*
%TO.N,ENABLE_1*%
X124450000Y-77850000D02*
X124400000Y-77850000D01*
%TO.N,GND*%
X143480000Y-65800000D02*
X139884800Y-65800000D01*
X130500000Y-61100000D02*
X134050000Y-61100000D01*
X137055000Y-67890000D02*
X139595000Y-67890000D01*
X139665000Y-65824800D02*
X139625000Y-65864800D01*
X139860000Y-65824800D02*
X139665000Y-65824800D01*
X143540000Y-65860000D02*
X143480000Y-65800000D01*
X124300000Y-60137500D02*
X123100000Y-60137500D01*
X143600000Y-72600000D02*
X139600000Y-72600000D01*
D26*
X129435000Y-65824800D02*
X129435000Y-64350000D01*
D24*
X140900000Y-61100000D02*
X141650000Y-61100000D01*
X135800000Y-72600000D02*
X139600000Y-72600000D01*
X141665000Y-61115000D02*
X141650000Y-61100000D01*
X138325000Y-75415200D02*
X139595000Y-75415200D01*
X123100000Y-61100000D02*
X123100000Y-60137500D01*
X139615000Y-75395200D02*
X139615000Y-73515000D01*
X139884800Y-65800000D02*
X139860000Y-65824800D01*
X135650000Y-60137500D02*
X135315411Y-60137500D01*
X112290000Y-55960000D02*
X112250000Y-56000000D01*
X145000000Y-61100000D02*
X145000000Y-60137500D01*
X118483333Y-61100000D02*
X120450000Y-61100000D01*
X143660000Y-65860000D02*
X143540000Y-65860000D01*
X120450000Y-61100000D02*
X123100000Y-61100000D01*
X139625000Y-65864800D02*
X139595000Y-65864800D01*
X134050000Y-61100000D02*
X134050000Y-60137500D01*
X124300000Y-64350000D02*
X124300000Y-60137500D01*
X135800000Y-75400200D02*
X135800000Y-72600000D01*
X124700000Y-60137500D02*
X124300000Y-60137500D01*
X113780000Y-55960000D02*
X112290000Y-55960000D01*
X137055000Y-65864800D02*
X137055000Y-67890000D01*
X139615000Y-73515000D02*
X139600000Y-73500000D01*
X124780000Y-55960000D02*
X124780000Y-57570000D01*
X139595000Y-75415200D02*
X139615000Y-75395200D01*
X139595000Y-67890000D02*
X139595000Y-65864800D01*
X124780000Y-57570000D02*
X124700000Y-57650000D01*
X135650000Y-60137500D02*
X134050000Y-60137500D01*
X141650000Y-61100000D02*
X145000000Y-61100000D01*
X124700000Y-57650000D02*
X124700000Y-60137500D01*
X139600000Y-72600000D02*
X139600000Y-73500000D01*
%TO.N,Net-(U1-SR)*%
X118860000Y-58723333D02*
X118860000Y-55960000D01*
X118483333Y-59100000D02*
X118860000Y-58723333D01*
%TO.N,OUT_EN_2*%
X149900000Y-62750000D02*
X149900000Y-61100000D01*
%TO.N,+24V*%
D29*
X132730000Y-55950000D02*
X132730000Y-55960000D01*
X134050000Y-58062500D02*
X134050000Y-55950000D01*
X134050000Y-55950000D02*
X132730000Y-55950000D01*
X145000000Y-58062500D02*
X145000000Y-55950000D01*
%TO.N,Net-(U2-SR)*%
D24*
X130500000Y-59100000D02*
X129860000Y-58460000D01*
X129860000Y-58460000D02*
X129860000Y-55960000D01*
X130500000Y-59100000D02*
X130500000Y-58900000D01*
%TO.N,Net-(U1-IN)*%
X114550000Y-59100000D02*
X115050000Y-58600000D01*
X115050000Y-58600000D02*
X115050000Y-55960000D01*
%TO.N,Net-(U1-INH)*%
X116300000Y-58883333D02*
X116300000Y-55980000D01*
X116300000Y-55980000D02*
X116320000Y-55960000D01*
X116516667Y-59100000D02*
X116300000Y-58883333D01*
%TO.N,Net-(J1-Pin_1)*%
X117590000Y-47100000D02*
X117650000Y-47040000D01*
D30*
X117650000Y-47040000D02*
X117650000Y-38600000D01*
X117650000Y-38600000D02*
X118250000Y-38000000D01*
D24*
X117590000Y-56640000D02*
X117590000Y-47100000D01*
D30*
X118250000Y-38000000D02*
X123590000Y-38000000D01*
%TO.N,Net-(U1-IS)*%
D24*
X131150000Y-52700000D02*
X131130000Y-52720000D01*
X131130000Y-52720000D02*
X131130000Y-55960000D01*
X120130000Y-58780000D02*
X120130000Y-55960000D01*
X120130000Y-55960000D02*
X120130000Y-52720000D01*
X120130000Y-52720000D02*
X120150000Y-52700000D01*
X120150000Y-52700000D02*
X131150000Y-52700000D01*
X120450000Y-59100000D02*
X120130000Y-58780000D01*
%TO.N,Net-(U3-IS)*%
X142070000Y-55960000D02*
X142070000Y-53030000D01*
X142070000Y-53030000D02*
X142150000Y-52950000D01*
X153040000Y-52960000D02*
X153040000Y-55960000D01*
X142150000Y-52950000D02*
X153050000Y-52950000D01*
X153050000Y-52950000D02*
X153040000Y-52960000D01*
%TO.N,Net-(U3-IN)*%
X136950000Y-58950000D02*
X136950000Y-59100000D01*
X136990000Y-58910000D02*
X136950000Y-58950000D01*
X136990000Y-55960000D02*
X136990000Y-58910000D01*
%TO.N,Net-(U4-IN)*%
X147960000Y-58790000D02*
X147900000Y-58850000D01*
X147960000Y-55960000D02*
X147960000Y-58790000D01*
X147900000Y-58850000D02*
X147900000Y-59100000D01*
%TO.N,Net-(J6-Pin_1)*%
X139530000Y-49320000D02*
X139540000Y-49310000D01*
X139530000Y-55960000D02*
X139530000Y-49320000D01*
D30*
X139500000Y-47040000D02*
X139480031Y-47020031D01*
X139530000Y-38000000D02*
X139530000Y-46300000D01*
%TO.N,Net-(U3-SR)*%
D24*
X140800000Y-59000000D02*
X140900000Y-59100000D01*
X140800000Y-55960000D02*
X140800000Y-59000000D01*
%TO.N,Net-(J6-Pin_2)*%
D30*
X150500000Y-38800000D02*
X150500000Y-46300000D01*
X144530000Y-38000000D02*
X149700000Y-38000000D01*
X149700000Y-38000000D02*
X150500000Y-38800000D01*
%TO.N,Net-(U4-SR)*%
D24*
X151770000Y-55960000D02*
X151770000Y-58980000D01*
X151770000Y-58980000D02*
X151890000Y-59100000D01*
X151890000Y-59100000D02*
X151900000Y-59100000D01*
%TO.N,Net-(J1-Pin_2)*%
D30*
X128600000Y-47040000D02*
X128600000Y-38375000D01*
%TO.N,OUT_B*%
D26*
X133240000Y-63350000D02*
X126500000Y-63350000D01*
X126500000Y-63350000D02*
X126500000Y-61100000D01*
X133240000Y-65859800D02*
X133240000Y-63350000D01*
%TO.N,OUT_A*%
D24*
X114550000Y-67750000D02*
X114550000Y-61100000D01*
X130725000Y-67750000D02*
X114550000Y-67750000D01*
X130725000Y-65884800D02*
X130725000Y-67750000D01*
%TO.N,OUT_D*%
X147900000Y-64300000D02*
X147900000Y-61100000D01*
%TO.N,GND*%
X135550000Y-59726105D02*
X135191429Y-60084676D01*
X135550000Y-58349570D02*
X135550000Y-59726105D01*
X135720000Y-58179570D02*
X135550000Y-58349570D01*
X135720000Y-55960000D02*
X135720000Y-58179570D01*
%TD*%
%TA.AperFunction,Conductor*%
%TO.N,Net-(J6-Pin_2)*%
G36*
X144322032Y-35265771D02*
G01*
X144326980Y-35267224D01*
X144385761Y-35304990D01*
X144414794Y-35368542D01*
X144404859Y-35437702D01*
X144359111Y-35490512D01*
X144305942Y-35509425D01*
X144110599Y-35531434D01*
X144110569Y-35531439D01*
X143836808Y-35593923D01*
X143836347Y-35594087D01*
X143571780Y-35686662D01*
X143318801Y-35808490D01*
X143151021Y-35913914D01*
X144530000Y-37292893D01*
X144530001Y-37292893D01*
X145872658Y-35950232D01*
X145903341Y-35933478D01*
X145908978Y-35913914D01*
X145741197Y-35808490D01*
X145488218Y-35686662D01*
X145317003Y-35626751D01*
X145223617Y-35594075D01*
X145223187Y-35593922D01*
X144949429Y-35531439D01*
X144949397Y-35531434D01*
X144758888Y-35509970D01*
X144758881Y-35509968D01*
X144758877Y-35509968D01*
X144758876Y-35509968D01*
X144724731Y-35501065D01*
X144719974Y-35499066D01*
X144665801Y-35454945D01*
X144644080Y-35388538D01*
X144661710Y-35320929D01*
X144713093Y-35273584D01*
X144768022Y-35260754D01*
X158657670Y-35260754D01*
X158692606Y-35265777D01*
X158707604Y-35270181D01*
X158766355Y-35307926D01*
X158767542Y-35309295D01*
X158795018Y-35364156D01*
X158796663Y-35371714D01*
X158799500Y-35398085D01*
X158799500Y-51558170D01*
X158799499Y-51558176D01*
X158799500Y-51558179D01*
X158794475Y-51593114D01*
X158790070Y-51608112D01*
X158752327Y-51666855D01*
X158752292Y-51666885D01*
X158752291Y-51666887D01*
X158752289Y-51666887D01*
X158750958Y-51668042D01*
X158696097Y-51695518D01*
X158688539Y-51697163D01*
X158662168Y-51700000D01*
X145419500Y-51700000D01*
X145352461Y-51680315D01*
X145306706Y-51627511D01*
X145295500Y-51576000D01*
X145295500Y-42023980D01*
X145295500Y-42023974D01*
X145283959Y-41916575D01*
X145272764Y-41865086D01*
X145238666Y-41762586D01*
X145238663Y-41762580D01*
X145160906Y-41641534D01*
X145160902Y-41641528D01*
X145115157Y-41588714D01*
X145006444Y-41494475D01*
X144916621Y-41453432D01*
X144875579Y-41434678D01*
X144875575Y-41434676D01*
X144875568Y-41434674D01*
X144808561Y-41414983D01*
X144808541Y-41414978D01*
X144808534Y-41414977D01*
X144666130Y-41394474D01*
X142472489Y-41394031D01*
X142405453Y-41374333D01*
X142359709Y-41321520D01*
X142348514Y-41270006D01*
X142348740Y-40150499D01*
X142348753Y-40086084D01*
X143151020Y-40086084D01*
X143168930Y-40097337D01*
X143168930Y-40097338D01*
X143243458Y-40144167D01*
X143318799Y-40191507D01*
X143571782Y-40313337D01*
X143836522Y-40405973D01*
X143836815Y-40406077D01*
X144110569Y-40468559D01*
X144110574Y-40468559D01*
X144110575Y-40468560D01*
X144110587Y-40468562D01*
X144110591Y-40468562D01*
X144110601Y-40468564D01*
X144214255Y-40480242D01*
X144382222Y-40499167D01*
X144387011Y-40500000D01*
X144670400Y-40500000D01*
X144680195Y-40500000D01*
X144687794Y-40498039D01*
X144870338Y-40477471D01*
X144949397Y-40468564D01*
X144949404Y-40468562D01*
X144949412Y-40468562D01*
X144949424Y-40468560D01*
X144949427Y-40468559D01*
X144949429Y-40468559D01*
X145223182Y-40406077D01*
X145223355Y-40406015D01*
X145488217Y-40313337D01*
X145488216Y-40313337D01*
X145488220Y-40313336D01*
X145488223Y-40313334D01*
X145741193Y-40191511D01*
X145741195Y-40191509D01*
X145741203Y-40191506D01*
X145908977Y-40086085D01*
X145908977Y-40086084D01*
X144530001Y-38707106D01*
X144529999Y-38707106D01*
X143200784Y-40036320D01*
X143200782Y-40036322D01*
X143151021Y-40086084D01*
X143151020Y-40086084D01*
X142348753Y-40086084D01*
X142348761Y-40048136D01*
X142348441Y-40030039D01*
X142348125Y-40021168D01*
X142347157Y-40003102D01*
X142316574Y-39862510D01*
X142307818Y-39839034D01*
X142300000Y-39795700D01*
X142300000Y-39519347D01*
X142305022Y-39484417D01*
X142309109Y-39470496D01*
X142346881Y-39411716D01*
X142408562Y-39382973D01*
X142412342Y-39382370D01*
X142421238Y-39380951D01*
X142439466Y-39380533D01*
X142443912Y-39378976D01*
X142443914Y-39378977D01*
X143822893Y-38000000D01*
X143822893Y-37999999D01*
X143793055Y-37970161D01*
X144380000Y-37970161D01*
X144380000Y-37970163D01*
X144380000Y-38029837D01*
X144402836Y-38084968D01*
X144445032Y-38127164D01*
X144500163Y-38150000D01*
X144559835Y-38150000D01*
X144559837Y-38150000D01*
X144614968Y-38127164D01*
X144657164Y-38084968D01*
X144680000Y-38029837D01*
X144680000Y-37999999D01*
X145237106Y-37999999D01*
X146616084Y-39378977D01*
X146616085Y-39378977D01*
X146721506Y-39211203D01*
X146843337Y-38958217D01*
X146936015Y-38693355D01*
X146936077Y-38693182D01*
X146998559Y-38419429D01*
X146998559Y-38419427D01*
X146998560Y-38419424D01*
X146998562Y-38419412D01*
X147018140Y-38245655D01*
X147025684Y-38178710D01*
X153849500Y-38178710D01*
X153849500Y-38421288D01*
X153881160Y-38661781D01*
X153943947Y-38896104D01*
X154036772Y-39120203D01*
X154036773Y-39120207D01*
X154036780Y-39120220D01*
X154158060Y-39330283D01*
X154158062Y-39330286D01*
X154158281Y-39330615D01*
X154159284Y-39331879D01*
X154305726Y-39522728D01*
X154305730Y-39522733D01*
X154305733Y-39522736D01*
X154305739Y-39522743D01*
X154305747Y-39522751D01*
X154477242Y-39694247D01*
X154477256Y-39694260D01*
X154477262Y-39694265D01*
X154669711Y-39841936D01*
X154879788Y-39963224D01*
X155103900Y-40056054D01*
X155338211Y-40118838D01*
X155518586Y-40142584D01*
X155578710Y-40150500D01*
X155578711Y-40150500D01*
X155578712Y-40150500D01*
X155821283Y-40150500D01*
X155821289Y-40150500D01*
X155869388Y-40144167D01*
X156061789Y-40118838D01*
X156296100Y-40056054D01*
X156520212Y-39963224D01*
X156730289Y-39841936D01*
X156922738Y-39694265D01*
X157094265Y-39522738D01*
X157241936Y-39330289D01*
X157363224Y-39120212D01*
X157456054Y-38896100D01*
X157518838Y-38661789D01*
X157550500Y-38421288D01*
X157550500Y-38178712D01*
X157518838Y-37938211D01*
X157456054Y-37703900D01*
X157363224Y-37479788D01*
X157241936Y-37269711D01*
X157094265Y-37077262D01*
X157094260Y-37077256D01*
X157094259Y-37077255D01*
X157094247Y-37077242D01*
X156922751Y-36905747D01*
X156922743Y-36905739D01*
X156922736Y-36905733D01*
X156922733Y-36905730D01*
X156922728Y-36905726D01*
X156731879Y-36759284D01*
X156730615Y-36758281D01*
X156730286Y-36758062D01*
X156730283Y-36758060D01*
X156520220Y-36636780D01*
X156520207Y-36636773D01*
X156520203Y-36636772D01*
X156296104Y-36543947D01*
X156126420Y-36498480D01*
X156061785Y-36481161D01*
X156061784Y-36481160D01*
X156061781Y-36481160D01*
X155821290Y-36449500D01*
X155821289Y-36449500D01*
X155821288Y-36449500D01*
X155578712Y-36449500D01*
X155578711Y-36449500D01*
X155578710Y-36449500D01*
X155338217Y-36481160D01*
X155103894Y-36543947D01*
X154879790Y-36636774D01*
X154879782Y-36636778D01*
X154669706Y-36758067D01*
X154669697Y-36758073D01*
X154477270Y-36905726D01*
X154477255Y-36905740D01*
X154477247Y-36905747D01*
X154305747Y-37077247D01*
X154305740Y-37077255D01*
X154305726Y-37077270D01*
X154158073Y-37269697D01*
X154158067Y-37269706D01*
X154036778Y-37479782D01*
X154036774Y-37479790D01*
X153943947Y-37703894D01*
X153881160Y-37938217D01*
X153849500Y-38178710D01*
X147025684Y-38178710D01*
X147027703Y-38160792D01*
X147027704Y-38160777D01*
X147027705Y-38160769D01*
X147029167Y-38147779D01*
X147030000Y-38142991D01*
X147030000Y-37857010D01*
X147029167Y-37852222D01*
X146998562Y-37580587D01*
X146998560Y-37580575D01*
X146975557Y-37479788D01*
X146936077Y-37306815D01*
X146935973Y-37306522D01*
X146843337Y-37041782D01*
X146721507Y-36788799D01*
X146616084Y-36621021D01*
X146616083Y-36621020D01*
X145533211Y-37703894D01*
X145237106Y-37999999D01*
X144680000Y-37999999D01*
X144680000Y-37970163D01*
X144657164Y-37915032D01*
X144614968Y-37872836D01*
X144559838Y-37850000D01*
X144559837Y-37850000D01*
X144500163Y-37850000D01*
X144500161Y-37850000D01*
X144445031Y-37872836D01*
X144402836Y-37915031D01*
X144380000Y-37970161D01*
X143793055Y-37970161D01*
X142443913Y-36621020D01*
X142443912Y-36621019D01*
X142438667Y-36619184D01*
X142420312Y-36618622D01*
X142406029Y-36616120D01*
X142343392Y-36585163D01*
X142307927Y-36527088D01*
X142304502Y-36514726D01*
X142300000Y-36481618D01*
X142300000Y-36209919D01*
X142309649Y-36167207D01*
X142307840Y-36166532D01*
X142309381Y-36162401D01*
X142309386Y-36162391D01*
X142329084Y-36095355D01*
X142349589Y-35952945D01*
X142349704Y-35384879D01*
X142349703Y-35384878D01*
X142349704Y-35384729D01*
X142369402Y-35317693D01*
X142422215Y-35271949D01*
X142473704Y-35260754D01*
X144287114Y-35260754D01*
X144322032Y-35265771D01*
G37*
%TD.AperFunction*%
%TD*%
%TA.AperFunction,Conductor*%
%TO.N,Net-(J1-Pin_2)*%
G36*
X128382032Y-35265771D02*
G01*
X128386980Y-35267224D01*
X128445761Y-35304990D01*
X128474794Y-35368542D01*
X128464859Y-35437702D01*
X128419111Y-35490512D01*
X128365942Y-35509425D01*
X128170599Y-35531434D01*
X128170569Y-35531439D01*
X127896808Y-35593923D01*
X127896347Y-35594087D01*
X127631780Y-35686662D01*
X127378801Y-35808490D01*
X127211021Y-35913914D01*
X128590000Y-37292893D01*
X128590001Y-37292893D01*
X129932658Y-35950232D01*
X129963341Y-35933478D01*
X129968978Y-35913914D01*
X129801197Y-35808490D01*
X129548218Y-35686662D01*
X129377003Y-35626751D01*
X129283617Y-35594075D01*
X129283187Y-35593922D01*
X129009429Y-35531439D01*
X129009397Y-35531434D01*
X128818888Y-35509970D01*
X128818881Y-35509968D01*
X128818877Y-35509968D01*
X128818876Y-35509968D01*
X128784731Y-35501065D01*
X128779974Y-35499066D01*
X128725801Y-35454945D01*
X128704080Y-35388538D01*
X128721710Y-35320929D01*
X128773093Y-35273584D01*
X128828022Y-35260754D01*
X133423398Y-35260754D01*
X133490437Y-35280439D01*
X133536192Y-35333243D01*
X133545831Y-35385448D01*
X133547287Y-35385437D01*
X133548210Y-35499068D01*
X133558772Y-36799386D01*
X133558900Y-36815144D01*
X133568315Y-37974269D01*
X133574267Y-38707106D01*
X133578148Y-39184850D01*
X133578343Y-39208825D01*
X133578343Y-39208827D01*
X133600984Y-41996404D01*
X133600985Y-41996407D01*
X133609372Y-42084101D01*
X133617678Y-42129079D01*
X133617318Y-42129145D01*
X133619999Y-42152724D01*
X133619999Y-44334858D01*
X133620002Y-44336525D01*
X133620003Y-44336742D01*
X133620007Y-44337749D01*
X133620020Y-44339847D01*
X133678788Y-51574995D01*
X133659650Y-51642190D01*
X133607219Y-51688372D01*
X133554793Y-51700000D01*
X123451810Y-51700000D01*
X123451805Y-51699999D01*
X123451803Y-51700000D01*
X123416869Y-51694975D01*
X123401870Y-51690570D01*
X123343126Y-51652830D01*
X123341932Y-51651453D01*
X123314455Y-51596593D01*
X123312810Y-51589037D01*
X123309976Y-51562711D01*
X123308750Y-46988405D01*
X123307476Y-42234640D01*
X123312488Y-42199715D01*
X123316891Y-42184706D01*
X123354643Y-42125928D01*
X123356014Y-42124739D01*
X123410857Y-42097268D01*
X123418416Y-42095621D01*
X123444761Y-42092782D01*
X126200000Y-42092045D01*
X126200000Y-40086084D01*
X127211020Y-40086084D01*
X127228930Y-40097337D01*
X127228930Y-40097338D01*
X127315523Y-40151748D01*
X127378799Y-40191507D01*
X127631782Y-40313337D01*
X127896522Y-40405973D01*
X127896815Y-40406077D01*
X128170569Y-40468559D01*
X128170574Y-40468559D01*
X128170575Y-40468560D01*
X128170587Y-40468562D01*
X128170591Y-40468562D01*
X128170601Y-40468564D01*
X128274255Y-40480242D01*
X128442222Y-40499167D01*
X128447011Y-40500000D01*
X128730400Y-40500000D01*
X128740195Y-40500000D01*
X128747794Y-40498039D01*
X128930338Y-40477471D01*
X129009397Y-40468564D01*
X129009404Y-40468562D01*
X129009412Y-40468562D01*
X129009424Y-40468560D01*
X129009427Y-40468559D01*
X129009429Y-40468559D01*
X129283182Y-40406077D01*
X129283355Y-40406015D01*
X129548217Y-40313337D01*
X129548216Y-40313337D01*
X129548220Y-40313336D01*
X129548223Y-40313334D01*
X129801193Y-40191511D01*
X129801195Y-40191509D01*
X129801203Y-40191506D01*
X129968977Y-40086085D01*
X129968977Y-40086084D01*
X128590001Y-38707106D01*
X128589999Y-38707106D01*
X127260784Y-40036320D01*
X127260782Y-40036322D01*
X127211021Y-40086084D01*
X127211020Y-40086084D01*
X126200000Y-40086084D01*
X126200000Y-39343544D01*
X126202757Y-39331572D01*
X126201727Y-39322922D01*
X126205021Y-39308617D01*
X126208207Y-39297764D01*
X126211847Y-39292098D01*
X126212490Y-39289309D01*
X126217378Y-39279259D01*
X126226632Y-39269088D01*
X126245977Y-39238983D01*
X126259752Y-39232691D01*
X126264401Y-39227582D01*
X126280170Y-39223364D01*
X126309531Y-39209954D01*
X126323053Y-39211896D01*
X126331899Y-39209531D01*
X126352497Y-39216126D01*
X126378674Y-39219886D01*
X126380344Y-39220649D01*
X126390538Y-39228306D01*
X126398441Y-39230837D01*
X126405825Y-39239789D01*
X126422844Y-39252573D01*
X126422881Y-39252616D01*
X126433881Y-39267520D01*
X126503914Y-39378977D01*
X127882893Y-38000000D01*
X127853054Y-37970161D01*
X128440000Y-37970161D01*
X128440000Y-37970163D01*
X128440000Y-38029837D01*
X128462836Y-38084968D01*
X128505032Y-38127164D01*
X128560163Y-38150000D01*
X128619835Y-38150000D01*
X128619837Y-38150000D01*
X128674968Y-38127164D01*
X128717164Y-38084968D01*
X128740000Y-38029837D01*
X128740000Y-37999999D01*
X129297106Y-37999999D01*
X129297106Y-38000000D01*
X130676084Y-39378977D01*
X130676085Y-39378977D01*
X130781506Y-39211203D01*
X130782108Y-39209954D01*
X130903334Y-38958223D01*
X130903336Y-38958220D01*
X130907047Y-38947611D01*
X130996015Y-38693355D01*
X130996077Y-38693182D01*
X131058559Y-38419429D01*
X131058564Y-38419397D01*
X131088917Y-38150000D01*
X131089168Y-38147773D01*
X131090000Y-38142987D01*
X131090000Y-37857010D01*
X131089167Y-37852222D01*
X131058562Y-37580587D01*
X131058560Y-37580575D01*
X130996078Y-37306821D01*
X130996077Y-37306815D01*
X130995973Y-37306522D01*
X130903337Y-37041782D01*
X130781507Y-36788799D01*
X130676084Y-36621021D01*
X130676083Y-36621020D01*
X129297106Y-37999999D01*
X128740000Y-37999999D01*
X128740000Y-37970163D01*
X128717164Y-37915032D01*
X128674968Y-37872836D01*
X128619838Y-37850000D01*
X128619837Y-37850000D01*
X128560163Y-37850000D01*
X128560161Y-37850000D01*
X128505031Y-37872836D01*
X128462836Y-37915031D01*
X128440000Y-37970161D01*
X127853054Y-37970161D01*
X126503914Y-36621021D01*
X126503913Y-36621021D01*
X126503911Y-36621022D01*
X126438480Y-36725157D01*
X126429797Y-36733809D01*
X126426082Y-36741660D01*
X126415642Y-36752064D01*
X126407170Y-36759558D01*
X126401106Y-36762402D01*
X126399096Y-36764406D01*
X126389610Y-36770321D01*
X126376334Y-36774023D01*
X126343915Y-36789231D01*
X126328953Y-36787235D01*
X126322308Y-36789089D01*
X126306666Y-36784263D01*
X126274658Y-36779995D01*
X126264272Y-36771184D01*
X126255544Y-36768492D01*
X126241605Y-36751955D01*
X126221426Y-36734837D01*
X126220418Y-36733305D01*
X126216138Y-36721743D01*
X126210513Y-36715069D01*
X126208806Y-36701932D01*
X126201004Y-36680850D01*
X126200998Y-36680803D01*
X126200000Y-36665101D01*
X126200000Y-35402583D01*
X126205023Y-35367647D01*
X126209427Y-35352649D01*
X126247172Y-35293898D01*
X126248541Y-35292711D01*
X126303420Y-35265231D01*
X126310979Y-35263587D01*
X126337332Y-35260754D01*
X128347114Y-35260754D01*
X128382032Y-35265771D01*
G37*
%TD.AperFunction*%
%TD*%
%TA.AperFunction,Conductor*%
%TO.N,Net-(J6-Pin_1)*%
G36*
X141787244Y-35280439D02*
G01*
X141832999Y-35333243D01*
X141844204Y-35384777D01*
X141844171Y-35549710D01*
X141844089Y-35952843D01*
X141824391Y-36019879D01*
X141771577Y-36065623D01*
X141702417Y-36075552D01*
X141638867Y-36046514D01*
X141632408Y-36040499D01*
X141480770Y-35888861D01*
X141480758Y-35888851D01*
X141294336Y-35759698D01*
X141294330Y-35759695D01*
X141087832Y-35665899D01*
X141087829Y-35665898D01*
X140867912Y-35610483D01*
X140867906Y-35610482D01*
X140734719Y-35600000D01*
X140030000Y-35600000D01*
X140030000Y-40400000D01*
X140734706Y-40400000D01*
X140734719Y-40399999D01*
X140867906Y-40389517D01*
X140867912Y-40389516D01*
X141087829Y-40334101D01*
X141087832Y-40334100D01*
X141294330Y-40240304D01*
X141294336Y-40240301D01*
X141480758Y-40111148D01*
X141480764Y-40111143D01*
X141631579Y-39960328D01*
X141692903Y-39926843D01*
X141762594Y-39931827D01*
X141818528Y-39973698D01*
X141842945Y-40039163D01*
X141843261Y-40048034D01*
X141843192Y-40389516D01*
X141842887Y-41899404D01*
X144666028Y-41899974D01*
X144733061Y-41919672D01*
X144778805Y-41972485D01*
X144790000Y-42023974D01*
X144790000Y-51576000D01*
X144770315Y-51643039D01*
X144717511Y-51688794D01*
X144666000Y-51700000D01*
X134308317Y-51700000D01*
X134241278Y-51680315D01*
X134195523Y-51627511D01*
X134184321Y-51577007D01*
X134125503Y-44335741D01*
X134125499Y-44334734D01*
X134125499Y-42107129D01*
X134125498Y-42107123D01*
X134119091Y-42047517D01*
X134114283Y-42034627D01*
X134106468Y-41992305D01*
X134083826Y-39204719D01*
X137130000Y-39204719D01*
X137140482Y-39337906D01*
X137140483Y-39337912D01*
X137195898Y-39557829D01*
X137195899Y-39557832D01*
X137289695Y-39764330D01*
X137289698Y-39764336D01*
X137418851Y-39950758D01*
X137418861Y-39950770D01*
X137579229Y-40111138D01*
X137579241Y-40111148D01*
X137765663Y-40240301D01*
X137765669Y-40240304D01*
X137972167Y-40334100D01*
X137972170Y-40334101D01*
X138192087Y-40389516D01*
X138192093Y-40389517D01*
X138325280Y-40399999D01*
X138325294Y-40400000D01*
X139030000Y-40400000D01*
X139030000Y-38500000D01*
X137130000Y-38500000D01*
X137130000Y-39204719D01*
X134083826Y-39204719D01*
X134073798Y-37970163D01*
X139380000Y-37970163D01*
X139380000Y-38029837D01*
X139402836Y-38084968D01*
X139445032Y-38127164D01*
X139500163Y-38150000D01*
X139559837Y-38150000D01*
X139614968Y-38127164D01*
X139657164Y-38084968D01*
X139680000Y-38029837D01*
X139680000Y-37970163D01*
X139657164Y-37915032D01*
X139614968Y-37872836D01*
X139559837Y-37850000D01*
X139500163Y-37850000D01*
X139445032Y-37872836D01*
X139402836Y-37915032D01*
X139380000Y-37970163D01*
X134073798Y-37970163D01*
X134064255Y-36795280D01*
X137130000Y-36795280D01*
X137130000Y-37500000D01*
X139030000Y-37500000D01*
X139030000Y-35600000D01*
X138325280Y-35600000D01*
X138192093Y-35610482D01*
X138192087Y-35610483D01*
X137972170Y-35665898D01*
X137972167Y-35665899D01*
X137765669Y-35759695D01*
X137765663Y-35759698D01*
X137579241Y-35888851D01*
X137579229Y-35888861D01*
X137418861Y-36049229D01*
X137418851Y-36049241D01*
X137289698Y-36235663D01*
X137289695Y-36235669D01*
X137195899Y-36442167D01*
X137195898Y-36442170D01*
X137140483Y-36662087D01*
X137140482Y-36662093D01*
X137130000Y-36795280D01*
X134064255Y-36795280D01*
X134052806Y-35385759D01*
X134071946Y-35318564D01*
X134124376Y-35272382D01*
X134176802Y-35260754D01*
X141720205Y-35260754D01*
X141787244Y-35280439D01*
G37*
%TD.AperFunction*%
%TD*%
%TA.AperFunction,Conductor*%
%TO.N,Net-(J1-Pin_1)*%
G36*
X125638497Y-35280439D02*
G01*
X125684252Y-35333243D01*
X125695142Y-35393596D01*
X125694500Y-35402570D01*
X125694500Y-35758605D01*
X125674815Y-35825644D01*
X125622011Y-35871399D01*
X125552853Y-35881343D01*
X125499885Y-35860534D01*
X125354336Y-35759698D01*
X125354330Y-35759695D01*
X125271625Y-35722128D01*
X125147836Y-35665900D01*
X125147816Y-35665894D01*
X125147815Y-35665893D01*
X124927940Y-35610489D01*
X124927923Y-35610485D01*
X124927912Y-35610483D01*
X124927906Y-35610482D01*
X124877960Y-35606551D01*
X124794724Y-35600000D01*
X124794719Y-35600000D01*
X124090000Y-35600000D01*
X124090000Y-40400000D01*
X124794696Y-40400000D01*
X124794706Y-40400000D01*
X124794719Y-40399999D01*
X124927906Y-40389517D01*
X124927912Y-40389516D01*
X124927940Y-40389509D01*
X125147815Y-40334105D01*
X125147815Y-40334104D01*
X125147829Y-40334101D01*
X125147832Y-40334100D01*
X125354330Y-40240304D01*
X125354336Y-40240301D01*
X125499885Y-40139464D01*
X125566201Y-40117468D01*
X125633882Y-40134816D01*
X125681440Y-40186002D01*
X125694500Y-40241393D01*
X125694500Y-41462713D01*
X125674815Y-41529752D01*
X125622011Y-41575507D01*
X125570533Y-41586713D01*
X123444621Y-41587281D01*
X123390614Y-41590191D01*
X123390594Y-41590192D01*
X123364254Y-41593031D01*
X123364233Y-41593034D01*
X123310810Y-41601707D01*
X123310798Y-41601709D01*
X123303245Y-41603355D01*
X123303244Y-41603355D01*
X123303241Y-41603356D01*
X123254254Y-41620654D01*
X123184468Y-41645296D01*
X123184458Y-41645300D01*
X123129633Y-41672762D01*
X123129618Y-41672770D01*
X123024818Y-41742848D01*
X123024812Y-41742853D01*
X123023447Y-41744037D01*
X123013001Y-41756101D01*
X123012982Y-41756123D01*
X122974990Y-41800000D01*
X122940000Y-41800000D01*
X122940000Y-41840409D01*
X122929316Y-41852748D01*
X122916306Y-41873002D01*
X122916304Y-41873006D01*
X122891564Y-41911525D01*
X122831832Y-42042408D01*
X122827428Y-42057423D01*
X122812115Y-42127901D01*
X122807100Y-42162843D01*
X122801975Y-42234765D01*
X122801975Y-42234776D01*
X122804475Y-51562843D01*
X122804825Y-51569343D01*
X122788768Y-51637343D01*
X122738496Y-51685866D01*
X122681004Y-51700000D01*
X109692330Y-51700000D01*
X109692325Y-51699999D01*
X109692323Y-51700000D01*
X109657389Y-51694975D01*
X109642390Y-51690570D01*
X109583644Y-51652827D01*
X109583615Y-51652793D01*
X109583614Y-51652793D01*
X109583613Y-51652791D01*
X109582457Y-51651458D01*
X109554977Y-51596583D01*
X109553332Y-51589021D01*
X109550500Y-51562668D01*
X109550500Y-38178710D01*
X110749500Y-38178710D01*
X110749500Y-38421288D01*
X110781160Y-38661781D01*
X110843947Y-38896104D01*
X110936772Y-39120203D01*
X110936773Y-39120207D01*
X110936780Y-39120220D01*
X111058060Y-39330283D01*
X111058062Y-39330286D01*
X111058281Y-39330615D01*
X111059284Y-39331879D01*
X111205726Y-39522728D01*
X111205730Y-39522733D01*
X111205733Y-39522736D01*
X111205739Y-39522743D01*
X111205747Y-39522751D01*
X111377242Y-39694247D01*
X111377256Y-39694260D01*
X111377262Y-39694265D01*
X111569711Y-39841936D01*
X111779788Y-39963224D01*
X112003900Y-40056054D01*
X112238211Y-40118838D01*
X112418586Y-40142584D01*
X112478710Y-40150500D01*
X112478711Y-40150500D01*
X112478712Y-40150500D01*
X112721283Y-40150500D01*
X112721289Y-40150500D01*
X112769388Y-40144167D01*
X112961789Y-40118838D01*
X113196100Y-40056054D01*
X113420212Y-39963224D01*
X113630289Y-39841936D01*
X113822738Y-39694265D01*
X113994265Y-39522738D01*
X114141936Y-39330289D01*
X114214434Y-39204719D01*
X121190000Y-39204719D01*
X121200482Y-39337906D01*
X121200483Y-39337912D01*
X121200485Y-39337923D01*
X121200489Y-39337940D01*
X121255893Y-39557815D01*
X121255894Y-39557816D01*
X121255900Y-39557836D01*
X121317870Y-39694265D01*
X121349695Y-39764330D01*
X121349698Y-39764336D01*
X121403456Y-39841932D01*
X121478847Y-39950752D01*
X121478854Y-39950762D01*
X121478857Y-39950765D01*
X121478873Y-39950783D01*
X121639215Y-40111125D01*
X121639224Y-40111133D01*
X121639229Y-40111138D01*
X121639241Y-40111148D01*
X121825663Y-40240301D01*
X121825669Y-40240304D01*
X121976178Y-40308668D01*
X122032162Y-40334098D01*
X122032163Y-40334098D01*
X122032167Y-40334100D01*
X122032170Y-40334101D01*
X122032182Y-40334104D01*
X122032183Y-40334105D01*
X122252058Y-40389509D01*
X122252062Y-40389509D01*
X122252087Y-40389516D01*
X122252093Y-40389517D01*
X122385280Y-40399999D01*
X122385294Y-40400000D01*
X123090000Y-40400000D01*
X123090000Y-38500000D01*
X121190000Y-38500000D01*
X121190000Y-39204719D01*
X114214434Y-39204719D01*
X114263224Y-39120212D01*
X114356054Y-38896100D01*
X114418838Y-38661789D01*
X114450500Y-38421288D01*
X114450500Y-38178712D01*
X114423044Y-37970161D01*
X123440000Y-37970161D01*
X123440000Y-37970163D01*
X123440000Y-38029837D01*
X123462836Y-38084968D01*
X123505032Y-38127164D01*
X123560163Y-38150000D01*
X123619835Y-38150000D01*
X123619837Y-38150000D01*
X123674968Y-38127164D01*
X123717164Y-38084968D01*
X123740000Y-38029837D01*
X123740000Y-37970163D01*
X123717164Y-37915032D01*
X123674968Y-37872836D01*
X123619838Y-37850000D01*
X123619837Y-37850000D01*
X123560163Y-37850000D01*
X123560161Y-37850000D01*
X123505031Y-37872836D01*
X123462836Y-37915031D01*
X123440000Y-37970161D01*
X114423044Y-37970161D01*
X114418838Y-37938211D01*
X114356054Y-37703900D01*
X114263224Y-37479788D01*
X114141936Y-37269711D01*
X113994265Y-37077262D01*
X113994260Y-37077256D01*
X113994259Y-37077255D01*
X113994247Y-37077242D01*
X113822751Y-36905746D01*
X113822746Y-36905742D01*
X113822743Y-36905739D01*
X113822738Y-36905735D01*
X113803832Y-36891228D01*
X113803831Y-36891227D01*
X113803822Y-36891220D01*
X113803820Y-36891218D01*
X113803815Y-36891214D01*
X113678790Y-36795280D01*
X121190000Y-36795280D01*
X121190000Y-37500000D01*
X123090000Y-37500000D01*
X123090000Y-35600000D01*
X122385274Y-35600000D01*
X122285389Y-35607861D01*
X122252093Y-35610482D01*
X122252087Y-35610483D01*
X122252078Y-35610485D01*
X122252058Y-35610489D01*
X122032183Y-35665893D01*
X122032182Y-35665894D01*
X122032162Y-35665900D01*
X121825664Y-35759697D01*
X121825662Y-35759698D01*
X121639246Y-35888847D01*
X121639236Y-35888854D01*
X121639233Y-35888857D01*
X121639215Y-35888873D01*
X121478873Y-36049215D01*
X121478857Y-36049233D01*
X121478854Y-36049236D01*
X121478847Y-36049246D01*
X121349698Y-36235662D01*
X121349697Y-36235664D01*
X121255900Y-36442162D01*
X121255894Y-36442182D01*
X121255893Y-36442183D01*
X121200489Y-36662058D01*
X121200485Y-36662078D01*
X121200483Y-36662087D01*
X121200482Y-36662093D01*
X121200482Y-36662095D01*
X121192929Y-36758067D01*
X121190000Y-36795280D01*
X113678790Y-36795280D01*
X113631879Y-36759284D01*
X113630615Y-36758281D01*
X113630286Y-36758062D01*
X113630283Y-36758060D01*
X113420220Y-36636780D01*
X113420207Y-36636773D01*
X113420203Y-36636772D01*
X113196104Y-36543947D01*
X112961781Y-36481160D01*
X112721290Y-36449500D01*
X112721289Y-36449500D01*
X112721288Y-36449500D01*
X112478712Y-36449500D01*
X112478711Y-36449500D01*
X112478710Y-36449500D01*
X112238217Y-36481160D01*
X112003894Y-36543947D01*
X111779790Y-36636774D01*
X111779782Y-36636778D01*
X111569706Y-36758067D01*
X111569697Y-36758073D01*
X111377270Y-36905726D01*
X111377255Y-36905740D01*
X111377247Y-36905747D01*
X111205747Y-37077247D01*
X111205740Y-37077255D01*
X111205726Y-37077270D01*
X111058073Y-37269697D01*
X111058067Y-37269706D01*
X110936778Y-37479782D01*
X110936774Y-37479790D01*
X110843947Y-37703894D01*
X110781160Y-37938217D01*
X110749500Y-38178710D01*
X109550500Y-38178710D01*
X109550500Y-35402583D01*
X109555523Y-35367647D01*
X109559927Y-35352649D01*
X109597672Y-35293898D01*
X109597700Y-35293873D01*
X109597699Y-35293873D01*
X109599041Y-35292710D01*
X109653920Y-35265231D01*
X109661479Y-35263587D01*
X109687832Y-35260754D01*
X125571458Y-35260754D01*
X125638497Y-35280439D01*
G37*
%TD.AperFunction*%
%TD*%
D31*
X109050000Y-34760254D02*
X159300000Y-34760254D01*
X159300000Y-79800000D01*
X109050000Y-79800000D01*
X109050000Y-34760254D01*
M02*
