M48
; DRILL file KiCad 10.0.2 date 2026-07-08T17:49:49
; FORMAT={-:-/ absolute / metric / decimal}
; #@! TF.CreationDate,2026-07-08T17:49:49-03:00
; #@! TF.GenerationSoftware,Kicad,Pcbnew,10.0.2
; #@! TF.FileFunction,Plated,1,2,PTH
FMAT,2
METRIC
; #@! TA.AperFunction,Plated,PTH,ViaDrill
T1C0.300
; #@! TA.AperFunction,Plated,PTH,ComponentDrill
T2C0.300
%
G90
G05
T1
X112.25Y-55.96
X114.662Y-43.6
X114.662Y-46.3
X114.662Y-49.275
X116.517Y-62.737
X117.6Y-43.6
X117.6Y-46.3
X117.6Y-49.275
X120.537Y-43.6
X120.537Y-46.3
X120.537Y-49.275
X121.85Y-66.15
X123.1Y-56.05
X123.952Y-73.127
X124.3Y-60.137
X125.662Y-43.6
X125.662Y-46.3
X125.662Y-49.275
X125.85Y-71.6
X128.6Y-43.6
X128.615Y-46.3
X128.615Y-49.275
X131.537Y-43.6
X131.67Y-46.3
X131.67Y-49.275
X134.05Y-55.95
X135.191Y-60.085
X135.262Y-62.75
X136.612Y-43.6
X136.612Y-46.3
X136.612Y-49.275
X138.917Y-62.733
X139.55Y-43.6
X139.55Y-46.3
X139.55Y-49.275
X142.487Y-43.6
X142.487Y-46.3
X142.487Y-49.275
X143.6Y-72.6
X143.66Y-65.86
X145.0Y-55.95
X146.0Y-61.182
X147.588Y-43.6
X147.588Y-46.3
X147.588Y-49.275
X149.9Y-62.75
X150.525Y-43.6
X150.525Y-46.3
X150.525Y-49.275
X153.034Y-60.732
X153.463Y-43.6
X153.463Y-46.3
X153.463Y-49.275
X156.05Y-55.95
T2
X119.295Y-77.85
X121.835Y-77.85
X123.59Y-38.0
X124.375Y-77.85
X126.915Y-77.85
X128.59Y-38.0
X129.455Y-77.85
X131.995Y-77.85
X134.535Y-77.85
X137.075Y-77.85
X139.53Y-38.0
X143.6Y-76.52
X144.53Y-38.0
X148.6Y-76.52
X153.0Y-65.8
X156.8Y-65.8
M30
